<?xml version="1.0" encoding="utf-8" standalone="no"?>
<!DOCTYPE svg PUBLIC "-//W3C//DTD SVG 1.1//EN"
  "http://www.w3.org/Graphics/SVG/1.1/DTD/svg11.dtd">
<!-- Created with matplotlib (https://matplotlib.org/) -->
<svg height="432pt" version="1.1" viewBox="0 0 864 432" width="864pt" xmlns="http://www.w3.org/2000/svg" xmlns:xlink="http://www.w3.org/1999/xlink">
 <metadata>
  <rdf:RDF xmlns:cc="http://creativecommons.org/ns#" xmlns:dc="http://purl.org/dc/elements/1.1/" xmlns:rdf="http://www.w3.org/1999/02/22-rdf-syntax-ns#">
   <cc:Work>
    <dc:type rdf:resource="http://purl.org/dc/dcmitype/StillImage"/>
    <dc:date>2022-08-23T14:15:27.712141</dc:date>
    <dc:format>image/svg+xml</dc:format>
    <dc:creator>
     <cc:Agent>
      <dc:title>Matplotlib v3.3.4, https://matplotlib.org/</dc:title>
     </cc:Agent>
    </dc:creator>
   </cc:Work>
  </rdf:RDF>
 </metadata>
 <defs>
  <style type="text/css">*{stroke-linecap:butt;stroke-linejoin:round;}</style>
 </defs>
 <g id="figure_1">
  <g id="patch_1">
   <path d="M 0 432 
L 864 432 
L 864 0 
L 0 0 
z
" style="fill:none;"/>
  </g>
  <g id="axes_1">
   <g id="patch_2">
    <path d="M 108 378 
L 777.6 378 
L 777.6 51.84 
L 108 51.84 
z
" style="fill:#ffffff;"/>
   </g>
   <g id="PolyCollection_1">
    <path clip-path="url(#pdefeaa8d2c)" d="M 108 187.330463 
L 108 188.979175 
L 116.06747 186.163165 
L 124.13494 184.830771 
L 132.20241 183.871707 
L 140.26988 178.112685 
L 148.337349 174.628733 
L 156.404819 174.459378 
L 164.472289 174.24435 
L 172.539759 172.775283 
L 180.607229 168.608314 
L 188.674699 168.382144 
L 196.742169 167.218513 
L 204.809639 160.883018 
L 212.877108 160.010449 
L 220.944578 158.439847 
L 229.012048 155.691597 
L 237.079518 156.191959 
L 245.146988 155.30717 
L 253.214458 155.453269 
L 261.281928 155.416414 
L 269.349398 153.840525 
L 277.416867 153.675008 
L 285.484337 152.918097 
L 293.551807 152.213991 
L 301.619277 152.186854 
L 309.686747 151.537901 
L 317.754217 151.234916 
L 325.821687 150.451728 
L 333.889157 149.561576 
L 341.956627 148.655337 
L 350.024096 147.646231 
L 358.091566 147.669872 
L 366.159036 147.587295 
L 374.226506 147.412977 
L 382.293976 147.160021 
L 390.361446 146.627705 
L 398.428916 146.347176 
L 406.496386 145.700374 
L 414.563855 145.395486 
L 422.631325 144.420536 
L 430.698795 144.45787 
L 438.766265 143.745075 
L 446.833735 142.795966 
L 454.901205 141.387001 
L 462.968675 141.190124 
L 471.036145 140.845878 
L 479.103614 140.546778 
L 487.171084 139.711691 
L 495.238554 139.129445 
L 503.306024 139.059086 
L 511.373494 138.576145 
L 519.440964 138.490861 
L 527.508434 138.294396 
L 535.575904 137.23744 
L 543.643373 136.579731 
L 551.710843 136.282407 
L 559.778313 136.093467 
L 567.845783 135.040083 
L 575.913253 134.485549 
L 583.980723 134.201007 
L 592.048193 133.773683 
L 600.115663 133.448588 
L 608.183133 133.910998 
L 616.250602 132.448254 
L 624.318072 131.848643 
L 632.385542 130.301419 
L 640.453012 130.178338 
L 648.520482 127.91435 
L 656.587952 126.764347 
L 664.655422 126.56408 
L 672.722892 124.709899 
L 680.790361 122.269322 
L 688.857831 115.285061 
L 696.925301 113.053616 
L 704.992771 111.926787 
L 713.060241 110.855929 
L 721.127711 104.324757 
L 729.195181 99.655646 
L 737.262651 98.716962 
L 745.33012 96.699822 
L 753.39759 94.342305 
L 761.46506 87.091291 
L 769.53253 83.286886 
L 777.6 67.522537 
L 777.6 66.665455 
L 777.6 66.665455 
L 769.53253 82.55224 
L 761.46506 86.567532 
L 753.39759 93.968951 
L 745.33012 96.41805 
L 737.262651 97.57685 
L 729.195181 99.411468 
L 721.127711 103.53275 
L 713.060241 110.610335 
L 704.992771 111.610789 
L 696.925301 112.762858 
L 688.857831 115.053151 
L 680.790361 122.048762 
L 672.722892 124.361192 
L 664.655422 125.406796 
L 656.587952 125.918285 
L 648.520482 127.58153 
L 640.453012 129.904869 
L 632.385542 130.062716 
L 624.318072 131.561483 
L 616.250602 132.157328 
L 608.183133 132.581858 
L 600.115663 133.115901 
L 592.048193 132.863706 
L 583.980723 132.769793 
L 575.913253 134.048321 
L 567.845783 134.10577 
L 559.778313 135.272964 
L 551.710843 135.719678 
L 543.643373 136.214759 
L 535.575904 136.862721 
L 527.508434 137.304482 
L 519.440964 138.153139 
L 511.373494 138.177689 
L 503.306024 138.602455 
L 495.238554 138.687411 
L 487.171084 138.972128 
L 479.103614 140.094046 
L 471.036145 140.466953 
L 462.968675 140.902607 
L 454.901205 140.960608 
L 446.833735 142.422498 
L 438.766265 142.932528 
L 430.698795 143.403733 
L 422.631325 144.094617 
L 414.563855 144.936441 
L 406.496386 145.335868 
L 398.428916 145.383667 
L 390.361446 145.280724 
L 382.293976 146.730269 
L 374.226506 147.075752 
L 366.159036 147.066102 
L 358.091566 147.213878 
L 350.024096 147.269126 
L 341.956627 148.308484 
L 333.889157 149.163838 
L 325.821687 149.697318 
L 317.754217 150.144272 
L 309.686747 151.114326 
L 301.619277 151.524291 
L 293.551807 151.894335 
L 285.484337 152.413247 
L 277.416867 152.928693 
L 269.349398 152.880856 
L 261.281928 154.654112 
L 253.214458 154.828647 
L 245.146988 155.002415 
L 237.079518 154.697599 
L 229.012048 155.294686 
L 220.944578 157.855584 
L 212.877108 159.567412 
L 204.809639 160.470933 
L 196.742169 166.81746 
L 188.674699 166.952142 
L 180.607229 168.174774 
L 172.539759 171.329248 
L 164.472289 173.6742 
L 156.404819 173.531642 
L 148.337349 174.106743 
L 140.26988 177.654757 
L 132.20241 182.238202 
L 124.13494 184.242927 
L 116.06747 185.384115 
L 108 187.330463 
z
" style="fill:#bf00bf;fill-opacity:0.2;"/>
   </g>
   <g id="PolyCollection_2">
    <path clip-path="url(#pdefeaa8d2c)" d="M 108 170.419523 
L 108 171.104409 
L 116.06747 162.878302 
L 124.13494 156.863253 
L 132.20241 155.479654 
L 140.26988 155.063605 
L 148.337349 155.039821 
L 156.404819 152.356751 
L 164.472289 152.008229 
L 172.539759 152.088537 
L 180.607229 151.361653 
L 188.674699 151.138281 
L 196.742169 150.448262 
L 204.809639 150.120149 
L 212.877108 148.837973 
L 220.944578 148.740885 
L 229.012048 147.463563 
L 237.079518 146.749623 
L 245.146988 146.554633 
L 253.214458 145.323307 
L 261.281928 144.909517 
L 269.349398 145.036419 
L 277.416867 145.377448 
L 285.484337 145.157214 
L 293.551807 144.154256 
L 301.619277 143.10589 
L 309.686747 143.073731 
L 317.754217 143.032276 
L 325.821687 142.3219 
L 333.889157 140.628614 
L 341.956627 140.554575 
L 350.024096 140.228864 
L 358.091566 139.429951 
L 366.159036 137.036244 
L 374.226506 136.360175 
L 382.293976 135.972947 
L 390.361446 135.454076 
L 398.428916 135.268537 
L 406.496386 135.014808 
L 414.563855 135.002674 
L 422.631325 134.167968 
L 430.698795 133.375688 
L 438.766265 132.747765 
L 446.833735 132.767567 
L 454.901205 131.009896 
L 462.968675 130.504543 
L 471.036145 130.524025 
L 479.103614 129.124169 
L 487.171084 128.55572 
L 495.238554 128.493633 
L 503.306024 128.180384 
L 511.373494 128.223804 
L 519.440964 127.738417 
L 527.508434 126.907069 
L 535.575904 126.074636 
L 543.643373 125.167538 
L 551.710843 124.489029 
L 559.778313 124.220835 
L 567.845783 124.028103 
L 575.913253 123.758993 
L 583.980723 123.820479 
L 592.048193 123.137901 
L 600.115663 121.55221 
L 608.183133 120.967864 
L 616.250602 120.901741 
L 624.318072 119.636615 
L 632.385542 118.78285 
L 640.453012 117.522105 
L 648.520482 117.048356 
L 656.587952 116.816826 
L 664.655422 114.041481 
L 672.722892 113.079208 
L 680.790361 109.283833 
L 688.857831 109.492165 
L 696.925301 108.760512 
L 704.992771 108.753922 
L 713.060241 108.091789 
L 721.127711 106.049034 
L 729.195181 104.749597 
L 737.262651 102.169757 
L 745.33012 100.730051 
L 753.39759 100.27121 
L 761.46506 96.449641 
L 769.53253 93.42588 
L 777.6 92.315615 
L 777.6 91.282676 
L 777.6 91.282676 
L 769.53253 92.713228 
L 761.46506 96.175287 
L 753.39759 99.887917 
L 745.33012 100.521055 
L 737.262651 101.837015 
L 729.195181 103.999826 
L 721.127711 105.68511 
L 713.060241 107.671707 
L 704.992771 108.52916 
L 696.925301 108.534256 
L 688.857831 108.649536 
L 680.790361 108.960489 
L 672.722892 112.778676 
L 664.655422 113.738501 
L 656.587952 116.459448 
L 648.520482 116.696451 
L 640.453012 117.233501 
L 632.385542 118.52583 
L 624.318072 119.380011 
L 616.250602 120.477415 
L 608.183133 120.622375 
L 600.115663 121.280565 
L 592.048193 121.982375 
L 583.980723 122.484929 
L 575.913253 123.529073 
L 567.845783 123.775578 
L 559.778313 123.956293 
L 551.710843 124.189563 
L 543.643373 124.804629 
L 535.575904 125.080938 
L 527.508434 125.041451 
L 519.440964 127.353125 
L 511.373494 127.485251 
L 503.306024 127.836028 
L 495.238554 128.114103 
L 487.171084 128.321153 
L 479.103614 128.84228 
L 471.036145 129.640313 
L 462.968675 130.122424 
L 454.901205 130.608543 
L 446.833735 131.734556 
L 438.766265 132.020014 
L 430.698795 133.051701 
L 422.631325 133.886575 
L 414.563855 134.116054 
L 406.496386 134.676187 
L 398.428916 134.612879 
L 390.361446 135.075834 
L 382.293976 135.388356 
L 374.226506 135.377105 
L 366.159036 136.059037 
L 358.091566 139.096626 
L 350.024096 139.87159 
L 341.956627 140.200386 
L 333.889157 140.298245 
L 325.821687 141.981363 
L 317.754217 142.505112 
L 309.686747 142.575096 
L 301.619277 142.774232 
L 293.551807 143.836902 
L 285.484337 144.024679 
L 277.416867 143.885134 
L 269.349398 144.400811 
L 261.281928 144.596692 
L 253.214458 144.990714 
L 245.146988 146.207431 
L 237.079518 146.366205 
L 229.012048 147.054997 
L 220.944578 148.41939 
L 212.877108 148.410356 
L 204.809639 149.740342 
L 196.742169 150.071988 
L 188.674699 150.854043 
L 180.607229 150.848136 
L 172.539759 150.744376 
L 164.472289 151.556294 
L 156.404819 151.627743 
L 148.337349 154.332329 
L 140.26988 154.736994 
L 132.20241 154.520259 
L 124.13494 156.063138 
L 116.06747 161.670998 
L 108 170.419523 
z
" style="fill:#008000;fill-opacity:0.2;"/>
   </g>
   <g id="PolyCollection_3">
    <path clip-path="url(#pdefeaa8d2c)" d="M 108 175.955101 
L 108 176.437804 
L 116.06747 167.480115 
L 124.13494 164.758233 
L 132.20241 162.674554 
L 140.26988 162.571391 
L 148.337349 161.693359 
L 156.404819 161.628237 
L 164.472289 161.542114 
L 172.539759 161.483622 
L 180.607229 161.374983 
L 188.674699 161.264836 
L 196.742169 161.133987 
L 204.809639 161.067302 
L 212.877108 160.758467 
L 220.944578 159.571998 
L 229.012048 159.558842 
L 237.079518 159.319367 
L 245.146988 159.332238 
L 253.214458 159.183897 
L 261.281928 159.361002 
L 269.349398 158.412659 
L 277.416867 158.423699 
L 285.484337 157.460459 
L 293.551807 157.502945 
L 301.619277 157.009138 
L 309.686747 156.826501 
L 317.754217 156.80093 
L 325.821687 156.718677 
L 333.889157 156.715969 
L 341.956627 156.647368 
L 350.024096 156.682246 
L 358.091566 156.615297 
L 366.159036 156.546276 
L 374.226506 156.483725 
L 382.293976 156.469638 
L 390.361446 156.661099 
L 398.428916 156.41037 
L 406.496386 156.280472 
L 414.563855 156.26756 
L 422.631325 156.252042 
L 430.698795 156.481446 
L 438.766265 156.093917 
L 446.833735 156.379221 
L 454.901205 156.024412 
L 462.968675 156.104172 
L 471.036145 155.893874 
L 479.103614 155.984955 
L 487.171084 155.778759 
L 495.238554 155.807103 
L 503.306024 155.111666 
L 511.373494 155.428912 
L 519.440964 154.881151 
L 527.508434 154.826717 
L 535.575904 155.301581 
L 543.643373 154.855047 
L 551.710843 154.447 
L 559.778313 154.418889 
L 567.845783 154.499752 
L 575.913253 153.993967 
L 583.980723 153.266493 
L 592.048193 153.606783 
L 600.115663 152.930586 
L 608.183133 151.406413 
L 616.250602 151.255012 
L 624.318072 150.98706 
L 632.385542 151.523446 
L 640.453012 150.442753 
L 648.520482 150.444814 
L 656.587952 150.372522 
L 664.655422 150.354081 
L 672.722892 150.079965 
L 680.790361 150.059039 
L 688.857831 149.92039 
L 696.925301 149.790883 
L 704.992771 149.661491 
L 713.060241 150.227722 
L 721.127711 149.434922 
L 729.195181 149.150956 
L 737.262651 148.880906 
L 745.33012 148.973021 
L 753.39759 148.415232 
L 761.46506 148.585656 
L 769.53253 147.881946 
L 777.6 144.066329 
L 777.6 142.834869 
L 777.6 142.834869 
L 769.53253 146.890513 
L 761.46506 146.587684 
L 753.39759 147.381039 
L 745.33012 147.454148 
L 737.262651 148.463766 
L 729.195181 148.799781 
L 721.127711 149.022262 
L 713.060241 148.578169 
L 704.992771 149.331069 
L 696.925301 149.380349 
L 688.857831 149.333835 
L 680.790361 149.651029 
L 672.722892 149.713068 
L 664.655422 149.964296 
L 656.587952 149.980618 
L 648.520482 150.091059 
L 640.453012 150.103637 
L 632.385542 149.876597 
L 624.318072 150.608341 
L 616.250602 150.91368 
L 608.183133 151.094333 
L 600.115663 151.568575 
L 592.048193 152.059281 
L 583.980723 152.56596 
L 575.913253 152.8471 
L 567.845783 152.95923 
L 559.778313 153.598403 
L 551.710843 153.8846 
L 543.643373 153.66552 
L 535.575904 153.497343 
L 527.508434 154.442292 
L 519.440964 154.535554 
L 511.373494 154.408852 
L 503.306024 154.731431 
L 495.238554 154.610131 
L 487.171084 154.665603 
L 479.103614 155.041169 
L 471.036145 155.460372 
L 462.968675 155.354085 
L 454.901205 155.5196 
L 446.833735 155.377283 
L 438.766265 155.721177 
L 430.698795 155.539974 
L 422.631325 155.823164 
L 414.563855 155.811029 
L 406.496386 155.813813 
L 398.428916 155.994513 
L 390.361446 155.843168 
L 382.293976 156.02771 
L 374.226506 156.071892 
L 366.159036 156.153098 
L 358.091566 156.241714 
L 350.024096 156.221174 
L 341.956627 156.296219 
L 333.889157 156.2775 
L 325.821687 156.367872 
L 317.754217 156.412359 
L 309.686747 156.426367 
L 301.619277 156.569578 
L 293.551807 156.657086 
L 285.484337 156.999359 
L 277.416867 156.806944 
L 269.349398 158.104787 
L 261.281928 157.986427 
L 253.214458 158.572191 
L 245.146988 158.720352 
L 237.079518 158.79323 
L 229.012048 159.179074 
L 220.944578 159.186497 
L 212.877108 159.72626 
L 204.809639 160.674107 
L 196.742169 160.656538 
L 188.674699 160.794264 
L 180.607229 160.959828 
L 172.539759 161.015992 
L 164.472289 161.091722 
L 156.404819 161.292297 
L 148.337349 161.299459 
L 140.26988 162.148064 
L 132.20241 162.277299 
L 124.13494 163.934854 
L 116.06747 166.579625 
L 108 175.955101 
z
" style="fill:#00ffff;fill-opacity:0.2;"/>
   </g>
   <g id="PolyCollection_4">
    <path clip-path="url(#pdefeaa8d2c)" d="M 108 262.413958 
L 108 265.217254 
L 116.06747 255.490629 
L 124.13494 255.311246 
L 132.20241 253.100762 
L 140.26988 250.852947 
L 148.337349 250.26184 
L 156.404819 249.118274 
L 164.472289 247.456161 
L 172.539759 246.14825 
L 180.607229 245.041337 
L 188.674699 243.692635 
L 196.742169 240.993924 
L 204.809639 238.925149 
L 212.877108 234.769252 
L 220.944578 234.190333 
L 229.012048 233.894547 
L 237.079518 232.194549 
L 245.146988 231.792967 
L 253.214458 230.328697 
L 261.281928 228.533599 
L 269.349398 227.345556 
L 277.416867 226.410202 
L 285.484337 226.406832 
L 293.551807 226.411097 
L 301.619277 226.295501 
L 309.686747 226.136846 
L 317.754217 225.936256 
L 325.821687 225.447852 
L 333.889157 225.343795 
L 341.956627 224.873709 
L 350.024096 224.219738 
L 358.091566 224.147318 
L 366.159036 223.80291 
L 374.226506 223.042138 
L 382.293976 221.613157 
L 390.361446 221.183086 
L 398.428916 220.313509 
L 406.496386 220.074692 
L 414.563855 219.991578 
L 422.631325 219.150979 
L 430.698795 218.043622 
L 438.766265 217.719488 
L 446.833735 216.97594 
L 454.901205 216.644866 
L 462.968675 216.514081 
L 471.036145 216.267006 
L 479.103614 216.225267 
L 487.171084 216.061269 
L 495.238554 215.839524 
L 503.306024 215.586508 
L 511.373494 215.359962 
L 519.440964 214.669481 
L 527.508434 214.056228 
L 535.575904 213.623967 
L 543.643373 212.820894 
L 551.710843 210.759746 
L 559.778313 208.113736 
L 567.845783 204.015009 
L 575.913253 203.748754 
L 583.980723 202.906816 
L 592.048193 201.622281 
L 600.115663 201.480198 
L 608.183133 200.421568 
L 616.250602 199.384306 
L 624.318072 197.203619 
L 632.385542 196.969342 
L 640.453012 196.621864 
L 648.520482 195.170237 
L 656.587952 194.991678 
L 664.655422 194.680253 
L 672.722892 194.418768 
L 680.790361 192.05553 
L 688.857831 191.713344 
L 696.925301 190.494017 
L 704.992771 187.281353 
L 713.060241 183.596184 
L 721.127711 182.149518 
L 729.195181 179.308385 
L 737.262651 174.869554 
L 745.33012 172.614445 
L 753.39759 172.165071 
L 761.46506 169.581882 
L 769.53253 166.32476 
L 777.6 160.860428 
L 777.6 160.327384 
L 777.6 160.327384 
L 769.53253 165.752424 
L 761.46506 168.829312 
L 753.39759 171.434126 
L 745.33012 171.93544 
L 737.262651 174.149405 
L 729.195181 178.483007 
L 721.127711 181.556537 
L 713.060241 181.802815 
L 704.992771 185.70221 
L 696.925301 189.868956 
L 688.857831 191.03797 
L 680.790361 190.997479 
L 672.722892 193.572638 
L 664.655422 193.843665 
L 656.587952 193.778987 
L 648.520482 194.477432 
L 640.453012 195.721428 
L 632.385542 196.267543 
L 624.318072 196.604256 
L 616.250602 198.632868 
L 608.183133 199.637683 
L 600.115663 200.637519 
L 592.048193 200.826877 
L 583.980723 202.082036 
L 575.913253 202.724287 
L 567.845783 203.248433 
L 559.778313 207.202662 
L 551.710843 209.934668 
L 543.643373 211.932292 
L 535.575904 212.6957 
L 527.508434 213.13111 
L 519.440964 213.65407 
L 511.373494 214.434036 
L 503.306024 214.643436 
L 495.238554 214.699939 
L 487.171084 214.988213 
L 479.103614 215.210432 
L 471.036145 215.242297 
L 462.968675 215.441872 
L 454.901205 215.494333 
L 446.833735 215.954468 
L 438.766265 216.661018 
L 430.698795 216.788825 
L 422.631325 217.98847 
L 414.563855 218.88925 
L 406.496386 218.995943 
L 398.428916 219.34353 
L 390.361446 220.173936 
L 382.293976 220.361175 
L 374.226506 221.985399 
L 366.159036 222.727811 
L 358.091566 222.967617 
L 350.024096 223.005333 
L 341.956627 223.62151 
L 333.889157 224.119497 
L 325.821687 224.079814 
L 317.754217 224.801307 
L 309.686747 224.843306 
L 301.619277 224.893234 
L 293.551807 225.11763 
L 285.484337 225.133645 
L 277.416867 225.20235 
L 269.349398 225.899368 
L 261.281928 227.229822 
L 253.214458 229.070801 
L 245.146988 230.487438 
L 237.079518 231.16568 
L 229.012048 232.58949 
L 220.944578 233.241746 
L 212.877108 233.587134 
L 204.809639 237.471476 
L 196.742169 239.277801 
L 188.674699 241.934183 
L 180.607229 243.314656 
L 172.539759 244.313494 
L 164.472289 245.908291 
L 156.404819 247.533197 
L 148.337349 248.574883 
L 140.26988 249.400483 
L 132.20241 251.466781 
L 124.13494 253.363188 
L 116.06747 254.077198 
L 108 262.413958 
z
" style="fill:#ff0000;fill-opacity:0.2;"/>
   </g>
   <g id="PolyCollection_5">
    <path clip-path="url(#pdefeaa8d2c)" d="M 108 345.503702 
L 108 363.174545 
L 116.06747 362.396263 
L 124.13494 357.825989 
L 132.20241 357.8558 
L 140.26988 357.752609 
L 148.337349 355.458835 
L 156.404819 352.230841 
L 164.472289 354.918605 
L 172.539759 354.040643 
L 180.607229 354.065805 
L 188.674699 353.8629 
L 196.742169 353.063161 
L 204.809639 347.054812 
L 212.877108 349.830023 
L 220.944578 349.62012 
L 229.012048 346.90307 
L 237.079518 348.364131 
L 245.146988 346.751847 
L 253.214458 347.036771 
L 261.281928 346.970372 
L 269.349398 346.298113 
L 277.416867 345.864472 
L 285.484337 344.231344 
L 293.551807 345.022151 
L 301.619277 345.246729 
L 309.686747 343.324865 
L 317.754217 343.782812 
L 325.821687 342.247498 
L 333.889157 341.428573 
L 341.956627 341.054703 
L 350.024096 340.479838 
L 358.091566 340.411573 
L 366.159036 340.654881 
L 374.226506 340.586759 
L 382.293976 340.072309 
L 390.361446 340.248174 
L 398.428916 339.598748 
L 406.496386 338.397737 
L 414.563855 338.820356 
L 422.631325 338.119942 
L 430.698795 338.03727 
L 438.766265 337.925408 
L 446.833735 337.544705 
L 454.901205 337.164098 
L 462.968675 336.224216 
L 471.036145 336.797065 
L 479.103614 336.718009 
L 487.171084 334.900311 
L 495.238554 336.148495 
L 503.306024 335.604046 
L 511.373494 335.455684 
L 519.440964 334.235722 
L 527.508434 334.269966 
L 535.575904 332.6626 
L 543.643373 332.245027 
L 551.710843 332.173685 
L 559.778313 331.659678 
L 567.845783 331.913898 
L 575.913253 330.833534 
L 583.980723 330.201728 
L 592.048193 329.705918 
L 600.115663 329.01394 
L 608.183133 326.85938 
L 616.250602 326.095273 
L 624.318072 326.592692 
L 632.385542 325.667277 
L 640.453012 325.559484 
L 648.520482 324.700842 
L 656.587952 322.77193 
L 664.655422 321.97895 
L 672.722892 319.102485 
L 680.790361 319.748234 
L 688.857831 319.810131 
L 696.925301 319.498514 
L 704.992771 318.654499 
L 713.060241 317.694795 
L 721.127711 317.041483 
L 729.195181 316.089522 
L 737.262651 316.177134 
L 745.33012 315.369368 
L 753.39759 314.094397 
L 761.46506 314.022581 
L 769.53253 309.372841 
L 777.6 307.60029 
L 777.6 300.506012 
L 777.6 300.506012 
L 769.53253 301.613239 
L 761.46506 306.114961 
L 753.39759 307.114542 
L 745.33012 306.797649 
L 737.262651 307.72612 
L 729.195181 308.512064 
L 721.127711 308.194626 
L 713.060241 308.298458 
L 704.992771 309.551485 
L 696.925301 310.427975 
L 688.857831 310.334416 
L 680.790361 310.76852 
L 672.722892 311.331872 
L 664.655422 312.163083 
L 656.587952 312.767988 
L 648.520482 314.643297 
L 640.453012 314.917656 
L 632.385542 315.156492 
L 624.318072 315.66341 
L 616.250602 316.09213 
L 608.183133 316.439594 
L 600.115663 318.371618 
L 592.048193 319.126013 
L 583.980723 318.988554 
L 575.913253 319.735092 
L 567.845783 320.017283 
L 559.778313 320.311214 
L 551.710843 320.697795 
L 543.643373 321.071753 
L 535.575904 321.000935 
L 527.508434 322.278293 
L 519.440964 322.631427 
L 511.373494 323.662352 
L 503.306024 323.329661 
L 495.238554 324.131743 
L 487.171084 325.404074 
L 479.103614 324.614677 
L 471.036145 324.680394 
L 462.968675 325.364788 
L 454.901205 324.664347 
L 446.833735 325.00576 
L 438.766265 325.506292 
L 430.698795 325.848116 
L 422.631325 325.874045 
L 414.563855 326.023524 
L 406.496386 326.715502 
L 398.428916 326.735927 
L 390.361446 326.881321 
L 382.293976 327.030564 
L 374.226506 327.25753 
L 366.159036 327.815745 
L 358.091566 328.087946 
L 350.024096 327.874422 
L 341.956627 328.614813 
L 333.889157 329.708322 
L 325.821687 329.279902 
L 317.754217 330.383112 
L 309.686747 331.050728 
L 301.619277 331.340128 
L 293.551807 331.576461 
L 285.484337 333.111312 
L 277.416867 332.188525 
L 269.349398 332.273224 
L 261.281928 332.712986 
L 253.214458 332.636697 
L 245.146988 333.163188 
L 237.079518 334.507861 
L 229.012048 336.756609 
L 220.944578 334.806826 
L 212.877108 335.214078 
L 204.809639 337.353466 
L 196.742169 337.639524 
L 188.674699 338.515125 
L 180.607229 338.74462 
L 172.539759 338.930708 
L 164.472289 338.922168 
L 156.404819 341.072192 
L 148.337349 341.980552 
L 140.26988 340.810628 
L 132.20241 341.287166 
L 124.13494 341.172483 
L 116.06747 344.697274 
L 108 345.503702 
z
" style="fill:#0000ff;fill-opacity:0.2;"/>
   </g>
   <g id="matplotlib.axis_1">
    <g id="xtick_1">
     <g id="line2d_1">
      <path clip-path="url(#pdefeaa8d2c)" d="M 108 378 
L 108 51.84 
" style="fill:none;stroke:#b0b0b0;stroke-linecap:square;stroke-width:0.8;"/>
     </g>
     <g id="line2d_2">
      <defs>
       <path d="M 0 0 
L 0 3.5 
" id="m4acc650f3b" style="stroke:#000000;stroke-width:0.8;"/>
      </defs>
      <g>
       <use style="stroke:#000000;stroke-width:0.8;" x="108" xlink:href="#m4acc650f3b" y="378"/>
      </g>
     </g>
     <g id="text_1">
      <!-- 0 -->
      <g transform="translate(103.54625 395.637812)scale(0.14 -0.14)">
       <defs>
        <path d="M 31.78125 66.40625 
Q 24.171875 66.40625 20.328125 58.90625 
Q 16.5 51.421875 16.5 36.375 
Q 16.5 21.390625 20.328125 13.890625 
Q 24.171875 6.390625 31.78125 6.390625 
Q 39.453125 6.390625 43.28125 13.890625 
Q 47.125 21.390625 47.125 36.375 
Q 47.125 51.421875 43.28125 58.90625 
Q 39.453125 66.40625 31.78125 66.40625 
z
M 31.78125 74.21875 
Q 44.046875 74.21875 50.515625 64.515625 
Q 56.984375 54.828125 56.984375 36.375 
Q 56.984375 17.96875 50.515625 8.265625 
Q 44.046875 -1.421875 31.78125 -1.421875 
Q 19.53125 -1.421875 13.0625 8.265625 
Q 6.59375 17.96875 6.59375 36.375 
Q 6.59375 54.828125 13.0625 64.515625 
Q 19.53125 74.21875 31.78125 74.21875 
z
" id="DejaVuSans-48"/>
       </defs>
       <use xlink:href="#DejaVuSans-48"/>
      </g>
     </g>
    </g>
    <g id="xtick_2">
     <g id="line2d_3">
      <path clip-path="url(#pdefeaa8d2c)" d="M 188.674699 378 
L 188.674699 51.84 
" style="fill:none;stroke:#b0b0b0;stroke-linecap:square;stroke-width:0.8;"/>
     </g>
     <g id="line2d_4">
      <g>
       <use style="stroke:#000000;stroke-width:0.8;" x="188.674699" xlink:href="#m4acc650f3b" y="378"/>
      </g>
     </g>
     <g id="text_2">
      <!-- 10 -->
      <g transform="translate(179.767199 395.637812)scale(0.14 -0.14)">
       <defs>
        <path d="M 12.40625 8.296875 
L 28.515625 8.296875 
L 28.515625 63.921875 
L 10.984375 60.40625 
L 10.984375 69.390625 
L 28.421875 72.90625 
L 38.28125 72.90625 
L 38.28125 8.296875 
L 54.390625 8.296875 
L 54.390625 0 
L 12.40625 0 
z
" id="DejaVuSans-49"/>
       </defs>
       <use xlink:href="#DejaVuSans-49"/>
       <use x="63.623047" xlink:href="#DejaVuSans-48"/>
      </g>
     </g>
    </g>
    <g id="xtick_3">
     <g id="line2d_5">
      <path clip-path="url(#pdefeaa8d2c)" d="M 269.349398 378 
L 269.349398 51.84 
" style="fill:none;stroke:#b0b0b0;stroke-linecap:square;stroke-width:0.8;"/>
     </g>
     <g id="line2d_6">
      <g>
       <use style="stroke:#000000;stroke-width:0.8;" x="269.349398" xlink:href="#m4acc650f3b" y="378"/>
      </g>
     </g>
     <g id="text_3">
      <!-- 20 -->
      <g transform="translate(260.441898 395.637812)scale(0.14 -0.14)">
       <defs>
        <path d="M 19.1875 8.296875 
L 53.609375 8.296875 
L 53.609375 0 
L 7.328125 0 
L 7.328125 8.296875 
Q 12.9375 14.109375 22.625 23.890625 
Q 32.328125 33.6875 34.8125 36.53125 
Q 39.546875 41.84375 41.421875 45.53125 
Q 43.3125 49.21875 43.3125 52.78125 
Q 43.3125 58.59375 39.234375 62.25 
Q 35.15625 65.921875 28.609375 65.921875 
Q 23.96875 65.921875 18.8125 64.3125 
Q 13.671875 62.703125 7.8125 59.421875 
L 7.8125 69.390625 
Q 13.765625 71.78125 18.9375 73 
Q 24.125 74.21875 28.421875 74.21875 
Q 39.75 74.21875 46.484375 68.546875 
Q 53.21875 62.890625 53.21875 53.421875 
Q 53.21875 48.921875 51.53125 44.890625 
Q 49.859375 40.875 45.40625 35.40625 
Q 44.1875 33.984375 37.640625 27.21875 
Q 31.109375 20.453125 19.1875 8.296875 
z
" id="DejaVuSans-50"/>
       </defs>
       <use xlink:href="#DejaVuSans-50"/>
       <use x="63.623047" xlink:href="#DejaVuSans-48"/>
      </g>
     </g>
    </g>
    <g id="xtick_4">
     <g id="line2d_7">
      <path clip-path="url(#pdefeaa8d2c)" d="M 350.024096 378 
L 350.024096 51.84 
" style="fill:none;stroke:#b0b0b0;stroke-linecap:square;stroke-width:0.8;"/>
     </g>
     <g id="line2d_8">
      <g>
       <use style="stroke:#000000;stroke-width:0.8;" x="350.024096" xlink:href="#m4acc650f3b" y="378"/>
      </g>
     </g>
     <g id="text_4">
      <!-- 30 -->
      <g transform="translate(341.116596 395.637812)scale(0.14 -0.14)">
       <defs>
        <path d="M 40.578125 39.3125 
Q 47.65625 37.796875 51.625 33 
Q 55.609375 28.21875 55.609375 21.1875 
Q 55.609375 10.40625 48.1875 4.484375 
Q 40.765625 -1.421875 27.09375 -1.421875 
Q 22.515625 -1.421875 17.65625 -0.515625 
Q 12.796875 0.390625 7.625 2.203125 
L 7.625 11.71875 
Q 11.71875 9.328125 16.59375 8.109375 
Q 21.484375 6.890625 26.8125 6.890625 
Q 36.078125 6.890625 40.9375 10.546875 
Q 45.796875 14.203125 45.796875 21.1875 
Q 45.796875 27.640625 41.28125 31.265625 
Q 36.765625 34.90625 28.71875 34.90625 
L 20.21875 34.90625 
L 20.21875 43.015625 
L 29.109375 43.015625 
Q 36.375 43.015625 40.234375 45.921875 
Q 44.09375 48.828125 44.09375 54.296875 
Q 44.09375 59.90625 40.109375 62.90625 
Q 36.140625 65.921875 28.71875 65.921875 
Q 24.65625 65.921875 20.015625 65.03125 
Q 15.375 64.15625 9.8125 62.3125 
L 9.8125 71.09375 
Q 15.4375 72.65625 20.34375 73.4375 
Q 25.25 74.21875 29.59375 74.21875 
Q 40.828125 74.21875 47.359375 69.109375 
Q 53.90625 64.015625 53.90625 55.328125 
Q 53.90625 49.265625 50.4375 45.09375 
Q 46.96875 40.921875 40.578125 39.3125 
z
" id="DejaVuSans-51"/>
       </defs>
       <use xlink:href="#DejaVuSans-51"/>
       <use x="63.623047" xlink:href="#DejaVuSans-48"/>
      </g>
     </g>
    </g>
    <g id="xtick_5">
     <g id="line2d_9">
      <path clip-path="url(#pdefeaa8d2c)" d="M 430.698795 378 
L 430.698795 51.84 
" style="fill:none;stroke:#b0b0b0;stroke-linecap:square;stroke-width:0.8;"/>
     </g>
     <g id="line2d_10">
      <g>
       <use style="stroke:#000000;stroke-width:0.8;" x="430.698795" xlink:href="#m4acc650f3b" y="378"/>
      </g>
     </g>
     <g id="text_5">
      <!-- 40 -->
      <g transform="translate(421.791295 395.637812)scale(0.14 -0.14)">
       <defs>
        <path d="M 37.796875 64.3125 
L 12.890625 25.390625 
L 37.796875 25.390625 
z
M 35.203125 72.90625 
L 47.609375 72.90625 
L 47.609375 25.390625 
L 58.015625 25.390625 
L 58.015625 17.1875 
L 47.609375 17.1875 
L 47.609375 0 
L 37.796875 0 
L 37.796875 17.1875 
L 4.890625 17.1875 
L 4.890625 26.703125 
z
" id="DejaVuSans-52"/>
       </defs>
       <use xlink:href="#DejaVuSans-52"/>
       <use x="63.623047" xlink:href="#DejaVuSans-48"/>
      </g>
     </g>
    </g>
    <g id="xtick_6">
     <g id="line2d_11">
      <path clip-path="url(#pdefeaa8d2c)" d="M 511.373494 378 
L 511.373494 51.84 
" style="fill:none;stroke:#b0b0b0;stroke-linecap:square;stroke-width:0.8;"/>
     </g>
     <g id="line2d_12">
      <g>
       <use style="stroke:#000000;stroke-width:0.8;" x="511.373494" xlink:href="#m4acc650f3b" y="378"/>
      </g>
     </g>
     <g id="text_6">
      <!-- 50 -->
      <g transform="translate(502.465994 395.637812)scale(0.14 -0.14)">
       <defs>
        <path d="M 10.796875 72.90625 
L 49.515625 72.90625 
L 49.515625 64.59375 
L 19.828125 64.59375 
L 19.828125 46.734375 
Q 21.96875 47.46875 24.109375 47.828125 
Q 26.265625 48.1875 28.421875 48.1875 
Q 40.625 48.1875 47.75 41.5 
Q 54.890625 34.8125 54.890625 23.390625 
Q 54.890625 11.625 47.5625 5.09375 
Q 40.234375 -1.421875 26.90625 -1.421875 
Q 22.3125 -1.421875 17.546875 -0.640625 
Q 12.796875 0.140625 7.71875 1.703125 
L 7.71875 11.625 
Q 12.109375 9.234375 16.796875 8.0625 
Q 21.484375 6.890625 26.703125 6.890625 
Q 35.15625 6.890625 40.078125 11.328125 
Q 45.015625 15.765625 45.015625 23.390625 
Q 45.015625 31 40.078125 35.4375 
Q 35.15625 39.890625 26.703125 39.890625 
Q 22.75 39.890625 18.8125 39.015625 
Q 14.890625 38.140625 10.796875 36.28125 
z
" id="DejaVuSans-53"/>
       </defs>
       <use xlink:href="#DejaVuSans-53"/>
       <use x="63.623047" xlink:href="#DejaVuSans-48"/>
      </g>
     </g>
    </g>
    <g id="xtick_7">
     <g id="line2d_13">
      <path clip-path="url(#pdefeaa8d2c)" d="M 592.048193 378 
L 592.048193 51.84 
" style="fill:none;stroke:#b0b0b0;stroke-linecap:square;stroke-width:0.8;"/>
     </g>
     <g id="line2d_14">
      <g>
       <use style="stroke:#000000;stroke-width:0.8;" x="592.048193" xlink:href="#m4acc650f3b" y="378"/>
      </g>
     </g>
     <g id="text_7">
      <!-- 60 -->
      <g transform="translate(583.140693 395.637812)scale(0.14 -0.14)">
       <defs>
        <path d="M 33.015625 40.375 
Q 26.375 40.375 22.484375 35.828125 
Q 18.609375 31.296875 18.609375 23.390625 
Q 18.609375 15.53125 22.484375 10.953125 
Q 26.375 6.390625 33.015625 6.390625 
Q 39.65625 6.390625 43.53125 10.953125 
Q 47.40625 15.53125 47.40625 23.390625 
Q 47.40625 31.296875 43.53125 35.828125 
Q 39.65625 40.375 33.015625 40.375 
z
M 52.59375 71.296875 
L 52.59375 62.3125 
Q 48.875 64.0625 45.09375 64.984375 
Q 41.3125 65.921875 37.59375 65.921875 
Q 27.828125 65.921875 22.671875 59.328125 
Q 17.53125 52.734375 16.796875 39.40625 
Q 19.671875 43.65625 24.015625 45.921875 
Q 28.375 48.1875 33.59375 48.1875 
Q 44.578125 48.1875 50.953125 41.515625 
Q 57.328125 34.859375 57.328125 23.390625 
Q 57.328125 12.15625 50.6875 5.359375 
Q 44.046875 -1.421875 33.015625 -1.421875 
Q 20.359375 -1.421875 13.671875 8.265625 
Q 6.984375 17.96875 6.984375 36.375 
Q 6.984375 53.65625 15.1875 63.9375 
Q 23.390625 74.21875 37.203125 74.21875 
Q 40.921875 74.21875 44.703125 73.484375 
Q 48.484375 72.75 52.59375 71.296875 
z
" id="DejaVuSans-54"/>
       </defs>
       <use xlink:href="#DejaVuSans-54"/>
       <use x="63.623047" xlink:href="#DejaVuSans-48"/>
      </g>
     </g>
    </g>
    <g id="xtick_8">
     <g id="line2d_15">
      <path clip-path="url(#pdefeaa8d2c)" d="M 672.722892 378 
L 672.722892 51.84 
" style="fill:none;stroke:#b0b0b0;stroke-linecap:square;stroke-width:0.8;"/>
     </g>
     <g id="line2d_16">
      <g>
       <use style="stroke:#000000;stroke-width:0.8;" x="672.722892" xlink:href="#m4acc650f3b" y="378"/>
      </g>
     </g>
     <g id="text_8">
      <!-- 70 -->
      <g transform="translate(663.815392 395.637812)scale(0.14 -0.14)">
       <defs>
        <path d="M 8.203125 72.90625 
L 55.078125 72.90625 
L 55.078125 68.703125 
L 28.609375 0 
L 18.3125 0 
L 43.21875 64.59375 
L 8.203125 64.59375 
z
" id="DejaVuSans-55"/>
       </defs>
       <use xlink:href="#DejaVuSans-55"/>
       <use x="63.623047" xlink:href="#DejaVuSans-48"/>
      </g>
     </g>
    </g>
    <g id="xtick_9">
     <g id="line2d_17">
      <path clip-path="url(#pdefeaa8d2c)" d="M 753.39759 378 
L 753.39759 51.84 
" style="fill:none;stroke:#b0b0b0;stroke-linecap:square;stroke-width:0.8;"/>
     </g>
     <g id="line2d_18">
      <g>
       <use style="stroke:#000000;stroke-width:0.8;" x="753.39759" xlink:href="#m4acc650f3b" y="378"/>
      </g>
     </g>
     <g id="text_9">
      <!-- 80 -->
      <g transform="translate(744.49009 395.637812)scale(0.14 -0.14)">
       <defs>
        <path d="M 31.78125 34.625 
Q 24.75 34.625 20.71875 30.859375 
Q 16.703125 27.09375 16.703125 20.515625 
Q 16.703125 13.921875 20.71875 10.15625 
Q 24.75 6.390625 31.78125 6.390625 
Q 38.8125 6.390625 42.859375 10.171875 
Q 46.921875 13.96875 46.921875 20.515625 
Q 46.921875 27.09375 42.890625 30.859375 
Q 38.875 34.625 31.78125 34.625 
z
M 21.921875 38.8125 
Q 15.578125 40.375 12.03125 44.71875 
Q 8.5 49.078125 8.5 55.328125 
Q 8.5 64.0625 14.71875 69.140625 
Q 20.953125 74.21875 31.78125 74.21875 
Q 42.671875 74.21875 48.875 69.140625 
Q 55.078125 64.0625 55.078125 55.328125 
Q 55.078125 49.078125 51.53125 44.71875 
Q 48 40.375 41.703125 38.8125 
Q 48.828125 37.15625 52.796875 32.3125 
Q 56.78125 27.484375 56.78125 20.515625 
Q 56.78125 9.90625 50.3125 4.234375 
Q 43.84375 -1.421875 31.78125 -1.421875 
Q 19.734375 -1.421875 13.25 4.234375 
Q 6.78125 9.90625 6.78125 20.515625 
Q 6.78125 27.484375 10.78125 32.3125 
Q 14.796875 37.15625 21.921875 38.8125 
z
M 18.3125 54.390625 
Q 18.3125 48.734375 21.84375 45.5625 
Q 25.390625 42.390625 31.78125 42.390625 
Q 38.140625 42.390625 41.71875 45.5625 
Q 45.3125 48.734375 45.3125 54.390625 
Q 45.3125 60.0625 41.71875 63.234375 
Q 38.140625 66.40625 31.78125 66.40625 
Q 25.390625 66.40625 21.84375 63.234375 
Q 18.3125 60.0625 18.3125 54.390625 
z
" id="DejaVuSans-56"/>
       </defs>
       <use xlink:href="#DejaVuSans-56"/>
       <use x="63.623047" xlink:href="#DejaVuSans-48"/>
      </g>
     </g>
    </g>
    <g id="text_10">
     <!-- EEG data sets -->
     <g transform="translate(386.9925 414.706875)scale(0.16 -0.16)">
      <defs>
       <path d="M 9.8125 72.90625 
L 55.90625 72.90625 
L 55.90625 64.59375 
L 19.671875 64.59375 
L 19.671875 43.015625 
L 54.390625 43.015625 
L 54.390625 34.71875 
L 19.671875 34.71875 
L 19.671875 8.296875 
L 56.78125 8.296875 
L 56.78125 0 
L 9.8125 0 
z
" id="DejaVuSans-69"/>
       <path d="M 59.515625 10.40625 
L 59.515625 29.984375 
L 43.40625 29.984375 
L 43.40625 38.09375 
L 69.28125 38.09375 
L 69.28125 6.78125 
Q 63.578125 2.734375 56.6875 0.65625 
Q 49.8125 -1.421875 42 -1.421875 
Q 24.90625 -1.421875 15.25 8.5625 
Q 5.609375 18.5625 5.609375 36.375 
Q 5.609375 54.25 15.25 64.234375 
Q 24.90625 74.21875 42 74.21875 
Q 49.125 74.21875 55.546875 72.453125 
Q 61.96875 70.703125 67.390625 67.28125 
L 67.390625 56.78125 
Q 61.921875 61.421875 55.765625 63.765625 
Q 49.609375 66.109375 42.828125 66.109375 
Q 29.4375 66.109375 22.71875 58.640625 
Q 16.015625 51.171875 16.015625 36.375 
Q 16.015625 21.625 22.71875 14.15625 
Q 29.4375 6.6875 42.828125 6.6875 
Q 48.046875 6.6875 52.140625 7.59375 
Q 56.25 8.5 59.515625 10.40625 
z
" id="DejaVuSans-71"/>
       <path id="DejaVuSans-32"/>
       <path d="M 45.40625 46.390625 
L 45.40625 75.984375 
L 54.390625 75.984375 
L 54.390625 0 
L 45.40625 0 
L 45.40625 8.203125 
Q 42.578125 3.328125 38.25 0.953125 
Q 33.9375 -1.421875 27.875 -1.421875 
Q 17.96875 -1.421875 11.734375 6.484375 
Q 5.515625 14.40625 5.515625 27.296875 
Q 5.515625 40.1875 11.734375 48.09375 
Q 17.96875 56 27.875 56 
Q 33.9375 56 38.25 53.625 
Q 42.578125 51.265625 45.40625 46.390625 
z
M 14.796875 27.296875 
Q 14.796875 17.390625 18.875 11.75 
Q 22.953125 6.109375 30.078125 6.109375 
Q 37.203125 6.109375 41.296875 11.75 
Q 45.40625 17.390625 45.40625 27.296875 
Q 45.40625 37.203125 41.296875 42.84375 
Q 37.203125 48.484375 30.078125 48.484375 
Q 22.953125 48.484375 18.875 42.84375 
Q 14.796875 37.203125 14.796875 27.296875 
z
" id="DejaVuSans-100"/>
       <path d="M 34.28125 27.484375 
Q 23.390625 27.484375 19.1875 25 
Q 14.984375 22.515625 14.984375 16.5 
Q 14.984375 11.71875 18.140625 8.90625 
Q 21.296875 6.109375 26.703125 6.109375 
Q 34.1875 6.109375 38.703125 11.40625 
Q 43.21875 16.703125 43.21875 25.484375 
L 43.21875 27.484375 
z
M 52.203125 31.203125 
L 52.203125 0 
L 43.21875 0 
L 43.21875 8.296875 
Q 40.140625 3.328125 35.546875 0.953125 
Q 30.953125 -1.421875 24.3125 -1.421875 
Q 15.921875 -1.421875 10.953125 3.296875 
Q 6 8.015625 6 15.921875 
Q 6 25.140625 12.171875 29.828125 
Q 18.359375 34.515625 30.609375 34.515625 
L 43.21875 34.515625 
L 43.21875 35.40625 
Q 43.21875 41.609375 39.140625 45 
Q 35.0625 48.390625 27.6875 48.390625 
Q 23 48.390625 18.546875 47.265625 
Q 14.109375 46.140625 10.015625 43.890625 
L 10.015625 52.203125 
Q 14.9375 54.109375 19.578125 55.046875 
Q 24.21875 56 28.609375 56 
Q 40.484375 56 46.34375 49.84375 
Q 52.203125 43.703125 52.203125 31.203125 
z
" id="DejaVuSans-97"/>
       <path d="M 18.3125 70.21875 
L 18.3125 54.6875 
L 36.8125 54.6875 
L 36.8125 47.703125 
L 18.3125 47.703125 
L 18.3125 18.015625 
Q 18.3125 11.328125 20.140625 9.421875 
Q 21.96875 7.515625 27.59375 7.515625 
L 36.8125 7.515625 
L 36.8125 0 
L 27.59375 0 
Q 17.1875 0 13.234375 3.875 
Q 9.28125 7.765625 9.28125 18.015625 
L 9.28125 47.703125 
L 2.6875 47.703125 
L 2.6875 54.6875 
L 9.28125 54.6875 
L 9.28125 70.21875 
z
" id="DejaVuSans-116"/>
       <path d="M 44.28125 53.078125 
L 44.28125 44.578125 
Q 40.484375 46.53125 36.375 47.5 
Q 32.28125 48.484375 27.875 48.484375 
Q 21.1875 48.484375 17.84375 46.4375 
Q 14.5 44.390625 14.5 40.28125 
Q 14.5 37.15625 16.890625 35.375 
Q 19.28125 33.59375 26.515625 31.984375 
L 29.59375 31.296875 
Q 39.15625 29.25 43.1875 25.515625 
Q 47.21875 21.78125 47.21875 15.09375 
Q 47.21875 7.46875 41.1875 3.015625 
Q 35.15625 -1.421875 24.609375 -1.421875 
Q 20.21875 -1.421875 15.453125 -0.5625 
Q 10.6875 0.296875 5.421875 2 
L 5.421875 11.28125 
Q 10.40625 8.6875 15.234375 7.390625 
Q 20.0625 6.109375 24.8125 6.109375 
Q 31.15625 6.109375 34.5625 8.28125 
Q 37.984375 10.453125 37.984375 14.40625 
Q 37.984375 18.0625 35.515625 20.015625 
Q 33.0625 21.96875 24.703125 23.78125 
L 21.578125 24.515625 
Q 13.234375 26.265625 9.515625 29.90625 
Q 5.8125 33.546875 5.8125 39.890625 
Q 5.8125 47.609375 11.28125 51.796875 
Q 16.75 56 26.8125 56 
Q 31.78125 56 36.171875 55.265625 
Q 40.578125 54.546875 44.28125 53.078125 
z
" id="DejaVuSans-115"/>
       <path d="M 56.203125 29.59375 
L 56.203125 25.203125 
L 14.890625 25.203125 
Q 15.484375 15.921875 20.484375 11.0625 
Q 25.484375 6.203125 34.421875 6.203125 
Q 39.59375 6.203125 44.453125 7.46875 
Q 49.3125 8.734375 54.109375 11.28125 
L 54.109375 2.78125 
Q 49.265625 0.734375 44.1875 -0.34375 
Q 39.109375 -1.421875 33.890625 -1.421875 
Q 20.796875 -1.421875 13.15625 6.1875 
Q 5.515625 13.8125 5.515625 26.8125 
Q 5.515625 40.234375 12.765625 48.109375 
Q 20.015625 56 32.328125 56 
Q 43.359375 56 49.78125 48.890625 
Q 56.203125 41.796875 56.203125 29.59375 
z
M 47.21875 32.234375 
Q 47.125 39.59375 43.09375 43.984375 
Q 39.0625 48.390625 32.421875 48.390625 
Q 24.90625 48.390625 20.390625 44.140625 
Q 15.875 39.890625 15.1875 32.171875 
z
" id="DejaVuSans-101"/>
      </defs>
      <use xlink:href="#DejaVuSans-69"/>
      <use x="63.183594" xlink:href="#DejaVuSans-69"/>
      <use x="126.367188" xlink:href="#DejaVuSans-71"/>
      <use x="203.857422" xlink:href="#DejaVuSans-32"/>
      <use x="235.644531" xlink:href="#DejaVuSans-100"/>
      <use x="299.121094" xlink:href="#DejaVuSans-97"/>
      <use x="360.400391" xlink:href="#DejaVuSans-116"/>
      <use x="399.609375" xlink:href="#DejaVuSans-97"/>
      <use x="460.888672" xlink:href="#DejaVuSans-32"/>
      <use x="492.675781" xlink:href="#DejaVuSans-115"/>
      <use x="544.775391" xlink:href="#DejaVuSans-101"/>
      <use x="606.298828" xlink:href="#DejaVuSans-116"/>
      <use x="645.507812" xlink:href="#DejaVuSans-115"/>
     </g>
    </g>
   </g>
   <g id="matplotlib.axis_2">
    <g id="ytick_1">
     <g id="line2d_19">
      <path clip-path="url(#pdefeaa8d2c)" d="M 108 298.191086 
L 777.6 298.191086 
" style="fill:none;stroke:#b0b0b0;stroke-linecap:square;stroke-width:0.8;"/>
     </g>
     <g id="line2d_20">
      <defs>
       <path d="M 0 0 
L -3.5 0 
" id="m6411736e32" style="stroke:#000000;stroke-width:0.8;"/>
      </defs>
      <g>
       <use style="stroke:#000000;stroke-width:0.8;" x="108" xlink:href="#m6411736e32" y="298.191086"/>
      </g>
     </g>
     <g id="text_11">
      <!-- $\mathdefault{10^{1}}$ -->
      <g transform="translate(76.36 303.509992)scale(0.14 -0.14)">
       <use transform="translate(0 0.684375)" xlink:href="#DejaVuSans-49"/>
       <use transform="translate(63.623047 0.684375)" xlink:href="#DejaVuSans-48"/>
       <use transform="translate(128.203125 38.965625)scale(0.7)" xlink:href="#DejaVuSans-49"/>
      </g>
     </g>
    </g>
    <g id="ytick_2">
     <g id="line2d_21">
      <path clip-path="url(#pdefeaa8d2c)" d="M 108 200.897626 
L 777.6 200.897626 
" style="fill:none;stroke:#b0b0b0;stroke-linecap:square;stroke-width:0.8;"/>
     </g>
     <g id="line2d_22">
      <g>
       <use style="stroke:#000000;stroke-width:0.8;" x="108" xlink:href="#m6411736e32" y="200.897626"/>
      </g>
     </g>
     <g id="text_12">
      <!-- $\mathdefault{10^{2}}$ -->
      <g transform="translate(76.36 206.216533)scale(0.14 -0.14)">
       <use transform="translate(0 0.765625)" xlink:href="#DejaVuSans-49"/>
       <use transform="translate(63.623047 0.765625)" xlink:href="#DejaVuSans-48"/>
       <use transform="translate(128.203125 39.046875)scale(0.7)" xlink:href="#DejaVuSans-50"/>
      </g>
     </g>
    </g>
    <g id="ytick_3">
     <g id="line2d_23">
      <path clip-path="url(#pdefeaa8d2c)" d="M 108 103.604167 
L 777.6 103.604167 
" style="fill:none;stroke:#b0b0b0;stroke-linecap:square;stroke-width:0.8;"/>
     </g>
     <g id="line2d_24">
      <g>
       <use style="stroke:#000000;stroke-width:0.8;" x="108" xlink:href="#m6411736e32" y="103.604167"/>
      </g>
     </g>
     <g id="text_13">
      <!-- $\mathdefault{10^{3}}$ -->
      <g transform="translate(76.36 108.923073)scale(0.14 -0.14)">
       <use transform="translate(0 0.765625)" xlink:href="#DejaVuSans-49"/>
       <use transform="translate(63.623047 0.765625)" xlink:href="#DejaVuSans-48"/>
       <use transform="translate(128.203125 39.046875)scale(0.7)" xlink:href="#DejaVuSans-51"/>
      </g>
     </g>
    </g>
    <g id="ytick_4">
     <g id="line2d_25">
      <defs>
       <path d="M 0 0 
L -2 0 
" id="m940938e2fc" style="stroke:#000000;stroke-width:0.6;"/>
      </defs>
      <g>
       <use style="stroke:#000000;stroke-width:0.6;" x="108" xlink:href="#m940938e2fc" y="366.196296"/>
      </g>
     </g>
    </g>
    <g id="ytick_5">
     <g id="line2d_26">
      <g>
       <use style="stroke:#000000;stroke-width:0.6;" x="108" xlink:href="#m940938e2fc" y="349.063768"/>
      </g>
     </g>
    </g>
    <g id="ytick_6">
     <g id="line2d_27">
      <g>
       <use style="stroke:#000000;stroke-width:0.6;" x="108" xlink:href="#m940938e2fc" y="336.908046"/>
      </g>
     </g>
    </g>
    <g id="ytick_7">
     <g id="line2d_28">
      <g>
       <use style="stroke:#000000;stroke-width:0.6;" x="108" xlink:href="#m940938e2fc" y="327.479336"/>
      </g>
     </g>
    </g>
    <g id="ytick_8">
     <g id="line2d_29">
      <g>
       <use style="stroke:#000000;stroke-width:0.6;" x="108" xlink:href="#m940938e2fc" y="319.775518"/>
      </g>
     </g>
    </g>
    <g id="ytick_9">
     <g id="line2d_30">
      <g>
       <use style="stroke:#000000;stroke-width:0.6;" x="108" xlink:href="#m940938e2fc" y="313.262034"/>
      </g>
     </g>
    </g>
    <g id="ytick_10">
     <g id="line2d_31">
      <g>
       <use style="stroke:#000000;stroke-width:0.6;" x="108" xlink:href="#m940938e2fc" y="307.619796"/>
      </g>
     </g>
    </g>
    <g id="ytick_11">
     <g id="line2d_32">
      <g>
       <use style="stroke:#000000;stroke-width:0.6;" x="108" xlink:href="#m940938e2fc" y="302.64299"/>
      </g>
     </g>
    </g>
    <g id="ytick_12">
     <g id="line2d_33">
      <g>
       <use style="stroke:#000000;stroke-width:0.6;" x="108" xlink:href="#m940938e2fc" y="268.902836"/>
      </g>
     </g>
    </g>
    <g id="ytick_13">
     <g id="line2d_34">
      <g>
       <use style="stroke:#000000;stroke-width:0.6;" x="108" xlink:href="#m940938e2fc" y="251.770308"/>
      </g>
     </g>
    </g>
    <g id="ytick_14">
     <g id="line2d_35">
      <g>
       <use style="stroke:#000000;stroke-width:0.6;" x="108" xlink:href="#m940938e2fc" y="239.614586"/>
      </g>
     </g>
    </g>
    <g id="ytick_15">
     <g id="line2d_36">
      <g>
       <use style="stroke:#000000;stroke-width:0.6;" x="108" xlink:href="#m940938e2fc" y="230.185876"/>
      </g>
     </g>
    </g>
    <g id="ytick_16">
     <g id="line2d_37">
      <g>
       <use style="stroke:#000000;stroke-width:0.6;" x="108" xlink:href="#m940938e2fc" y="222.482059"/>
      </g>
     </g>
    </g>
    <g id="ytick_17">
     <g id="line2d_38">
      <g>
       <use style="stroke:#000000;stroke-width:0.6;" x="108" xlink:href="#m940938e2fc" y="215.968574"/>
      </g>
     </g>
    </g>
    <g id="ytick_18">
     <g id="line2d_39">
      <g>
       <use style="stroke:#000000;stroke-width:0.6;" x="108" xlink:href="#m940938e2fc" y="210.326337"/>
      </g>
     </g>
    </g>
    <g id="ytick_19">
     <g id="line2d_40">
      <g>
       <use style="stroke:#000000;stroke-width:0.6;" x="108" xlink:href="#m940938e2fc" y="205.349531"/>
      </g>
     </g>
    </g>
    <g id="ytick_20">
     <g id="line2d_41">
      <g>
       <use style="stroke:#000000;stroke-width:0.6;" x="108" xlink:href="#m940938e2fc" y="171.609377"/>
      </g>
     </g>
    </g>
    <g id="ytick_21">
     <g id="line2d_42">
      <g>
       <use style="stroke:#000000;stroke-width:0.6;" x="108" xlink:href="#m940938e2fc" y="154.476849"/>
      </g>
     </g>
    </g>
    <g id="ytick_22">
     <g id="line2d_43">
      <g>
       <use style="stroke:#000000;stroke-width:0.6;" x="108" xlink:href="#m940938e2fc" y="142.321127"/>
      </g>
     </g>
    </g>
    <g id="ytick_23">
     <g id="line2d_44">
      <g>
       <use style="stroke:#000000;stroke-width:0.6;" x="108" xlink:href="#m940938e2fc" y="132.892416"/>
      </g>
     </g>
    </g>
    <g id="ytick_24">
     <g id="line2d_45">
      <g>
       <use style="stroke:#000000;stroke-width:0.6;" x="108" xlink:href="#m940938e2fc" y="125.188599"/>
      </g>
     </g>
    </g>
    <g id="ytick_25">
     <g id="line2d_46">
      <g>
       <use style="stroke:#000000;stroke-width:0.6;" x="108" xlink:href="#m940938e2fc" y="118.675114"/>
      </g>
     </g>
    </g>
    <g id="ytick_26">
     <g id="line2d_47">
      <g>
       <use style="stroke:#000000;stroke-width:0.6;" x="108" xlink:href="#m940938e2fc" y="113.032877"/>
      </g>
     </g>
    </g>
    <g id="ytick_27">
     <g id="line2d_48">
      <g>
       <use style="stroke:#000000;stroke-width:0.6;" x="108" xlink:href="#m940938e2fc" y="108.056071"/>
      </g>
     </g>
    </g>
    <g id="ytick_28">
     <g id="line2d_49">
      <g>
       <use style="stroke:#000000;stroke-width:0.6;" x="108" xlink:href="#m940938e2fc" y="74.315917"/>
      </g>
     </g>
    </g>
    <g id="ytick_29">
     <g id="line2d_50">
      <g>
       <use style="stroke:#000000;stroke-width:0.6;" x="108" xlink:href="#m940938e2fc" y="57.183389"/>
      </g>
     </g>
    </g>
    <g id="text_14">
     <!-- time (ms) -->
     <g transform="translate(69.0325 253.73875)rotate(-90)scale(0.16 -0.16)">
      <defs>
       <path d="M 9.421875 54.6875 
L 18.40625 54.6875 
L 18.40625 0 
L 9.421875 0 
z
M 9.421875 75.984375 
L 18.40625 75.984375 
L 18.40625 64.59375 
L 9.421875 64.59375 
z
" id="DejaVuSans-105"/>
       <path d="M 52 44.1875 
Q 55.375 50.25 60.0625 53.125 
Q 64.75 56 71.09375 56 
Q 79.640625 56 84.28125 50.015625 
Q 88.921875 44.046875 88.921875 33.015625 
L 88.921875 0 
L 79.890625 0 
L 79.890625 32.71875 
Q 79.890625 40.578125 77.09375 44.375 
Q 74.3125 48.1875 68.609375 48.1875 
Q 61.625 48.1875 57.5625 43.546875 
Q 53.515625 38.921875 53.515625 30.90625 
L 53.515625 0 
L 44.484375 0 
L 44.484375 32.71875 
Q 44.484375 40.625 41.703125 44.40625 
Q 38.921875 48.1875 33.109375 48.1875 
Q 26.21875 48.1875 22.15625 43.53125 
Q 18.109375 38.875 18.109375 30.90625 
L 18.109375 0 
L 9.078125 0 
L 9.078125 54.6875 
L 18.109375 54.6875 
L 18.109375 46.1875 
Q 21.1875 51.21875 25.484375 53.609375 
Q 29.78125 56 35.6875 56 
Q 41.65625 56 45.828125 52.96875 
Q 50 49.953125 52 44.1875 
z
" id="DejaVuSans-109"/>
       <path d="M 31 75.875 
Q 24.46875 64.65625 21.28125 53.65625 
Q 18.109375 42.671875 18.109375 31.390625 
Q 18.109375 20.125 21.3125 9.0625 
Q 24.515625 -2 31 -13.1875 
L 23.1875 -13.1875 
Q 15.875 -1.703125 12.234375 9.375 
Q 8.59375 20.453125 8.59375 31.390625 
Q 8.59375 42.28125 12.203125 53.3125 
Q 15.828125 64.359375 23.1875 75.875 
z
" id="DejaVuSans-40"/>
       <path d="M 8.015625 75.875 
L 15.828125 75.875 
Q 23.140625 64.359375 26.78125 53.3125 
Q 30.421875 42.28125 30.421875 31.390625 
Q 30.421875 20.453125 26.78125 9.375 
Q 23.140625 -1.703125 15.828125 -13.1875 
L 8.015625 -13.1875 
Q 14.5 -2 17.703125 9.0625 
Q 20.90625 20.125 20.90625 31.390625 
Q 20.90625 42.671875 17.703125 53.65625 
Q 14.5 64.65625 8.015625 75.875 
z
" id="DejaVuSans-41"/>
      </defs>
      <use xlink:href="#DejaVuSans-116"/>
      <use x="39.208984" xlink:href="#DejaVuSans-105"/>
      <use x="66.992188" xlink:href="#DejaVuSans-109"/>
      <use x="164.404297" xlink:href="#DejaVuSans-101"/>
      <use x="225.927734" xlink:href="#DejaVuSans-32"/>
      <use x="257.714844" xlink:href="#DejaVuSans-40"/>
      <use x="296.728516" xlink:href="#DejaVuSans-109"/>
      <use x="394.140625" xlink:href="#DejaVuSans-115"/>
      <use x="446.240234" xlink:href="#DejaVuSans-41"/>
     </g>
    </g>
   </g>
   <g id="line2d_51">
    <path clip-path="url(#pdefeaa8d2c)" d="M 108 188.117906 
L 116.06747 185.774441 
L 124.13494 184.53183 
L 132.20241 183.059043 
L 140.26988 177.885432 
L 148.337349 174.371997 
L 156.404819 173.983329 
L 164.472289 173.957695 
L 172.539759 172.055826 
L 180.607229 168.387701 
L 188.674699 167.656314 
L 196.742169 167.022022 
L 204.809639 160.680018 
L 212.877108 159.786817 
L 220.944578 158.147833 
L 229.012048 155.494836 
L 237.079518 155.432306 
L 245.146988 155.155787 
L 253.214458 155.135224 
L 261.281928 155.040569 
L 269.349398 153.351495 
L 277.416867 153.29964 
L 285.484337 152.660086 
L 293.551807 152.055515 
L 301.619277 151.853938 
L 309.686747 151.327155 
L 317.754217 150.680396 
L 325.821687 150.073552 
L 333.889157 149.360986 
L 341.956627 148.478867 
L 350.024096 147.45744 
L 358.091566 147.43478 
L 366.159036 147.326003 
L 374.226506 147.242484 
L 382.293976 146.948598 
L 390.361446 145.968002 
L 398.428916 145.856498 
L 406.496386 145.517902 
L 414.563855 145.170944 
L 422.631325 144.25522 
L 430.698795 143.923803 
L 438.766265 143.347727 
L 446.833735 142.608335 
L 454.901205 141.172735 
L 462.968675 141.042398 
L 471.036145 140.656765 
L 479.103614 140.318725 
L 487.171084 139.343907 
L 495.238554 138.910411 
L 503.306024 138.827387 
L 511.373494 138.375737 
L 519.440964 138.320485 
L 527.508434 137.803467 
L 535.575904 137.045851 
L 543.643373 136.399106 
L 551.710843 135.996109 
L 559.778313 135.672142 
L 567.845783 134.576002 
L 575.913253 134.270593 
L 583.980723 133.473815 
L 592.048193 133.31589 
L 600.115663 133.286305 
L 608.183133 133.245042 
L 616.250602 132.302159 
L 624.318072 131.704804 
L 632.385542 130.181754 
L 640.453012 130.039033 
L 648.520482 127.74834 
L 656.587952 126.3524 
L 664.655422 125.997984 
L 672.722892 124.531595 
L 680.790361 122.16024 
L 688.857831 115.168094 
L 696.925301 112.906943 
L 704.992771 111.768275 
L 713.060241 110.733123 
L 721.127711 103.922931 
L 729.195181 99.537408 
L 737.262651 98.140232 
L 745.33012 96.556174 
L 753.39759 94.153695 
L 761.46506 86.828314 
L 769.53253 82.915125 
L 777.6 67.099213 
" style="fill:none;stroke:#bf00bf;stroke-linecap:square;stroke-width:1.5;"/>
   </g>
   <g id="line2d_52">
    <path clip-path="url(#pdefeaa8d2c)" d="M 108 170.760906 
L 116.06747 162.274355 
L 124.13494 156.469013 
L 132.20241 154.987391 
L 140.26988 154.897029 
L 148.337349 154.683201 
L 156.404819 151.984274 
L 164.472289 151.779422 
L 172.539759 151.403893 
L 180.607229 151.108141 
L 188.674699 150.997319 
L 196.742169 150.262712 
L 204.809639 149.926088 
L 212.877108 148.6297 
L 220.944578 148.582967 
L 229.012048 147.258606 
L 237.079518 146.552957 
L 245.146988 146.382381 
L 253.214458 145.158913 
L 261.281928 144.747349 
L 269.349398 144.713822 
L 277.416867 144.619134 
L 285.484337 144.594328 
L 293.551807 143.995111 
L 301.619277 142.942552 
L 309.686747 142.828877 
L 317.754217 142.772099 
L 325.821687 142.146996 
L 333.889157 140.459262 
L 341.956627 140.379423 
L 350.024096 140.04894 
L 358.091566 139.260714 
L 366.159036 136.541779 
L 374.226506 135.863802 
L 382.293976 135.672943 
L 390.361446 135.261581 
L 398.428916 134.944692 
L 406.496386 134.844096 
L 414.563855 134.553638 
L 422.631325 134.026271 
L 430.698795 133.211498 
L 438.766265 132.396128 
L 446.833735 132.248897 
L 454.901205 130.806498 
L 462.968675 130.309851 
L 471.036145 130.083922 
L 479.103614 128.986089 
L 487.171084 128.43707 
L 495.238554 128.301006 
L 503.306024 128.014698 
L 511.373494 127.864454 
L 519.440964 127.540727 
L 527.508434 125.981127 
L 535.575904 125.5716 
L 543.643373 124.982858 
L 551.710843 124.3426 
L 559.778313 124.084949 
L 567.845783 123.90273 
L 575.913253 123.645442 
L 583.980723 123.155694 
L 592.048193 122.558799 
L 600.115663 121.419004 
L 608.183133 120.796905 
L 616.250602 120.689349 
L 624.318072 119.509283 
L 632.385542 118.647749 
L 640.453012 117.377105 
L 648.520482 116.876857 
L 656.587952 116.637703 
L 664.655422 113.890291 
L 672.722892 112.931691 
L 680.790361 109.12435 
L 688.857831 109.063446 
L 696.925301 108.649878 
L 704.992771 108.642384 
L 713.060241 107.882989 
L 721.127711 105.86256 
L 729.195181 104.373978 
L 737.262651 102.001165 
L 745.33012 100.626825 
L 753.39759 100.073959 
L 761.46506 96.311286 
L 769.53253 93.066045 
L 777.6 91.802191 
" style="fill:none;stroke:#008000;stroke-linecap:square;stroke-width:1.5;"/>
   </g>
   <g id="line2d_53">
    <path clip-path="url(#pdefeaa8d2c)" d="M 108 176.194514 
L 116.06747 167.038487 
L 124.13494 164.34266 
L 132.20241 162.473946 
L 140.26988 162.363377 
L 148.337349 161.499632 
L 156.404819 161.460117 
L 164.472289 161.318578 
L 172.539759 161.251164 
L 180.607229 161.167034 
L 188.674699 161.032541 
L 196.742169 160.90214 
L 204.809639 160.868264 
L 212.877108 160.252667 
L 220.944578 159.381223 
L 229.012048 159.369873 
L 237.079518 159.054073 
L 245.146988 159.028489 
L 253.214458 158.875537 
L 261.281928 158.66671 
L 269.349398 158.255259 
L 277.416867 157.601698 
L 285.484337 157.234308 
L 293.551807 157.088735 
L 301.619277 156.79061 
L 309.686747 156.626106 
L 317.754217 156.600977 
L 325.821687 156.544303 
L 333.889157 156.500063 
L 341.956627 156.466633 
L 350.024096 156.456384 
L 358.091566 156.422661 
L 366.159036 156.349954 
L 374.226506 156.281307 
L 382.293976 156.251259 
L 390.361446 156.248004 
L 398.428916 156.200913 
L 406.496386 156.051137 
L 414.563855 156.04697 
L 422.631325 156.036109 
L 430.698795 156.014555 
L 438.766265 155.901158 
L 446.833735 155.862731 
L 454.901205 155.772192 
L 462.968675 155.717247 
L 471.036145 155.675341 
L 479.103614 155.514391 
L 487.171084 155.218508 
L 495.238554 155.203277 
L 503.306024 154.919032 
L 511.373494 154.911558 
L 519.440964 154.701517 
L 527.508434 154.63549 
L 535.575904 154.394019 
L 543.643373 154.250632 
L 551.710843 154.168201 
L 559.778313 154.006067 
L 567.845783 153.689296 
L 575.913253 153.435372 
L 583.980723 152.922985 
L 592.048193 152.823382 
L 600.115663 152.23718 
L 608.183133 151.250404 
L 616.250602 151.086044 
L 624.318072 150.802739 
L 632.385542 150.702343 
L 640.453012 150.273057 
L 648.520482 150.269023 
L 656.587952 150.178901 
L 664.655422 150.160407 
L 672.722892 149.896276 
L 680.790361 149.854766 
L 688.857831 149.622653 
L 696.925301 149.583392 
L 704.992771 149.493046 
L 713.060241 149.394163 
L 721.127711 149.22602 
L 729.195181 148.971953 
L 737.262651 148.665767 
L 745.33012 148.198518 
L 753.39759 147.910852 
L 761.46506 147.567071 
L 769.53253 147.375995 
L 777.6 143.44637 
" style="fill:none;stroke:#00ffff;stroke-linecap:square;stroke-width:1.5;"/>
   </g>
   <g id="line2d_54">
    <path clip-path="url(#pdefeaa8d2c)" d="M 108 263.830157 
L 116.06747 254.787507 
L 124.13494 254.317704 
L 132.20241 252.288663 
L 140.26988 250.128873 
L 148.337349 249.415797 
L 156.404819 248.314628 
L 164.472289 246.693929 
L 172.539759 245.207081 
L 180.607229 244.195824 
L 188.674699 242.793517 
L 196.742169 240.132677 
L 204.809639 238.180485 
L 212.877108 234.188662 
L 220.944578 233.718192 
L 229.012048 233.256455 
L 237.079518 231.669195 
L 245.146988 231.154902 
L 253.214458 229.698042 
L 261.281928 227.884142 
L 269.349398 226.60568 
L 277.416867 225.80308 
L 285.484337 225.76682 
L 293.551807 225.758711 
L 301.619277 225.585218 
L 309.686747 225.47643 
L 317.754217 225.370518 
L 325.821687 224.76389 
L 333.889157 224.729028 
L 341.956627 224.24269 
L 350.024096 223.587385 
L 358.091566 223.562973 
L 366.159036 223.26943 
L 374.226506 222.50448 
L 382.293976 220.970829 
L 390.361446 220.682887 
L 398.428916 219.827783 
L 406.496386 219.527458 
L 414.563855 219.442015 
L 422.631325 218.569617 
L 430.698795 217.402566 
L 438.766265 217.173956 
L 446.833735 216.468739 
L 454.901205 216.065862 
L 462.968675 215.981125 
L 471.036145 215.745277 
L 479.103614 215.709444 
L 487.171084 215.520601 
L 495.238554 215.269372 
L 503.306024 215.108764 
L 511.373494 214.895685 
L 519.440964 214.148498 
L 527.508434 213.592946 
L 535.575904 213.165566 
L 543.643373 212.375578 
L 551.710843 210.339062 
L 559.778313 207.649335 
L 567.845783 203.63326 
L 575.913253 203.228394 
L 583.980723 202.494201 
L 592.048193 201.218117 
L 600.115663 201.056811 
L 608.183133 200.01823 
L 616.250602 199.009981 
L 624.318072 196.900362 
L 632.385542 196.617259 
L 640.453012 196.175427 
L 648.520482 194.821573 
L 656.587952 194.371226 
L 664.655422 194.252663 
L 672.722892 194.001869 
L 680.790361 191.532833 
L 688.857831 191.368053 
L 696.925301 190.186563 
L 704.992771 186.453953 
L 713.060241 182.691142 
L 721.127711 181.857195 
L 729.195181 178.883056 
L 737.262651 174.507607 
L 745.33012 172.267577 
L 753.39759 171.797257 
L 761.46506 169.204644 
L 769.53253 166.041336 
L 777.6 160.590595 
" style="fill:none;stroke:#ff0000;stroke-linecap:square;stroke-width:1.5;"/>
   </g>
   <g id="line2d_55">
    <path clip-path="url(#pdefeaa8d2c)" d="M 108 353.400577 
L 116.06747 352.675652 
L 124.13494 348.749058 
L 132.20241 348.60292 
L 140.26988 348.431408 
L 148.337349 348.112385 
L 156.404819 346.448894 
L 164.472289 346.10491 
L 172.539759 345.935241 
L 180.607229 345.794773 
L 188.674699 345.625259 
L 196.742169 344.741788 
L 204.809639 341.925476 
L 212.877108 341.716803 
L 220.944578 341.589323 
L 229.012048 341.491804 
L 237.079518 340.888475 
L 245.146988 339.394582 
L 253.214458 339.224981 
L 261.281928 339.054893 
L 269.349398 338.724012 
L 277.416867 338.554956 
L 285.484337 338.268481 
L 293.551807 337.932582 
L 301.619277 337.651846 
L 309.686747 336.664266 
L 317.754217 336.648869 
L 325.821687 335.315145 
L 333.889157 335.171009 
L 341.956627 334.329141 
L 350.024096 333.778467 
L 358.091566 333.726602 
L 366.159036 333.649798 
L 374.226506 333.413149 
L 382.293976 333.04694 
L 390.361446 332.942988 
L 398.428916 332.641534 
L 406.496386 332.083944 
L 414.563855 332.019869 
L 422.631325 331.550519 
L 430.698795 331.42595 
L 438.766265 331.158033 
L 446.833735 330.707698 
L 454.901205 330.554262 
L 462.968675 330.429847 
L 471.036145 330.294274 
L 479.103614 330.246641 
L 487.171084 329.90139 
L 495.238554 329.721625 
L 503.306024 329.09542 
L 511.373494 329.095231 
L 519.440964 328.152341 
L 527.508434 327.800163 
L 535.575904 326.429601 
L 543.643373 326.305689 
L 551.710843 326.147548 
L 559.778313 325.585426 
L 567.845783 325.399561 
L 575.913253 324.761394 
L 583.980723 324.191342 
L 592.048193 324.103026 
L 600.115663 323.40006 
L 608.183133 321.228831 
L 616.250602 320.824669 
L 624.318072 320.797706 
L 632.385542 319.994212 
L 640.453012 319.866778 
L 648.520482 319.467592 
L 656.587952 317.488568 
L 664.655422 316.815001 
L 672.722892 315.09911 
L 680.790361 314.991473 
L 688.857831 314.835909 
L 696.925301 314.634892 
L 704.992771 313.95311 
L 713.060241 312.762938 
L 721.127711 312.437317 
L 729.195181 312.126415 
L 737.262651 311.685392 
L 745.33012 310.896385 
L 753.39759 310.504406 
L 761.46506 309.875903 
L 769.53253 305.342347 
L 777.6 303.875863 
" style="fill:none;stroke:#0000ff;stroke-linecap:square;stroke-width:1.5;"/>
   </g>
   <g id="patch_3">
    <path d="M 108 378 
L 108 51.84 
" style="fill:none;stroke:#000000;stroke-linecap:square;stroke-linejoin:miter;stroke-width:0.8;"/>
   </g>
   <g id="patch_4">
    <path d="M 777.6 378 
L 777.6 51.84 
" style="fill:none;stroke:#000000;stroke-linecap:square;stroke-linejoin:miter;stroke-width:0.8;"/>
   </g>
   <g id="patch_5">
    <path d="M 108 378 
L 777.6 378 
" style="fill:none;stroke:#000000;stroke-linecap:square;stroke-linejoin:miter;stroke-width:0.8;"/>
   </g>
   <g id="patch_6">
    <path d="M 108 51.84 
L 777.6 51.84 
" style="fill:none;stroke:#000000;stroke-linecap:square;stroke-linejoin:miter;stroke-width:0.8;"/>
   </g>
   <g id="text_15">
    <!-- Execution time of JD algorithms -->
    <g transform="translate(324.200391 45.84)scale(0.15 -0.15)">
     <defs>
      <path d="M 54.890625 54.6875 
L 35.109375 28.078125 
L 55.90625 0 
L 45.3125 0 
L 29.390625 21.484375 
L 13.484375 0 
L 2.875 0 
L 24.125 28.609375 
L 4.6875 54.6875 
L 15.28125 54.6875 
L 29.78125 35.203125 
L 44.28125 54.6875 
z
" id="DejaVuSans-120"/>
      <path d="M 48.78125 52.59375 
L 48.78125 44.1875 
Q 44.96875 46.296875 41.140625 47.34375 
Q 37.3125 48.390625 33.40625 48.390625 
Q 24.65625 48.390625 19.8125 42.84375 
Q 14.984375 37.3125 14.984375 27.296875 
Q 14.984375 17.28125 19.8125 11.734375 
Q 24.65625 6.203125 33.40625 6.203125 
Q 37.3125 6.203125 41.140625 7.25 
Q 44.96875 8.296875 48.78125 10.40625 
L 48.78125 2.09375 
Q 45.015625 0.34375 40.984375 -0.53125 
Q 36.96875 -1.421875 32.421875 -1.421875 
Q 20.0625 -1.421875 12.78125 6.34375 
Q 5.515625 14.109375 5.515625 27.296875 
Q 5.515625 40.671875 12.859375 48.328125 
Q 20.21875 56 33.015625 56 
Q 37.15625 56 41.109375 55.140625 
Q 45.0625 54.296875 48.78125 52.59375 
z
" id="DejaVuSans-99"/>
      <path d="M 8.5 21.578125 
L 8.5 54.6875 
L 17.484375 54.6875 
L 17.484375 21.921875 
Q 17.484375 14.15625 20.5 10.265625 
Q 23.53125 6.390625 29.59375 6.390625 
Q 36.859375 6.390625 41.078125 11.03125 
Q 45.3125 15.671875 45.3125 23.6875 
L 45.3125 54.6875 
L 54.296875 54.6875 
L 54.296875 0 
L 45.3125 0 
L 45.3125 8.40625 
Q 42.046875 3.421875 37.71875 1 
Q 33.40625 -1.421875 27.6875 -1.421875 
Q 18.265625 -1.421875 13.375 4.4375 
Q 8.5 10.296875 8.5 21.578125 
z
M 31.109375 56 
z
" id="DejaVuSans-117"/>
      <path d="M 30.609375 48.390625 
Q 23.390625 48.390625 19.1875 42.75 
Q 14.984375 37.109375 14.984375 27.296875 
Q 14.984375 17.484375 19.15625 11.84375 
Q 23.34375 6.203125 30.609375 6.203125 
Q 37.796875 6.203125 41.984375 11.859375 
Q 46.1875 17.53125 46.1875 27.296875 
Q 46.1875 37.015625 41.984375 42.703125 
Q 37.796875 48.390625 30.609375 48.390625 
z
M 30.609375 56 
Q 42.328125 56 49.015625 48.375 
Q 55.71875 40.765625 55.71875 27.296875 
Q 55.71875 13.875 49.015625 6.21875 
Q 42.328125 -1.421875 30.609375 -1.421875 
Q 18.84375 -1.421875 12.171875 6.21875 
Q 5.515625 13.875 5.515625 27.296875 
Q 5.515625 40.765625 12.171875 48.375 
Q 18.84375 56 30.609375 56 
z
" id="DejaVuSans-111"/>
      <path d="M 54.890625 33.015625 
L 54.890625 0 
L 45.90625 0 
L 45.90625 32.71875 
Q 45.90625 40.484375 42.875 44.328125 
Q 39.84375 48.1875 33.796875 48.1875 
Q 26.515625 48.1875 22.3125 43.546875 
Q 18.109375 38.921875 18.109375 30.90625 
L 18.109375 0 
L 9.078125 0 
L 9.078125 54.6875 
L 18.109375 54.6875 
L 18.109375 46.1875 
Q 21.34375 51.125 25.703125 53.5625 
Q 30.078125 56 35.796875 56 
Q 45.21875 56 50.046875 50.171875 
Q 54.890625 44.34375 54.890625 33.015625 
z
" id="DejaVuSans-110"/>
      <path d="M 37.109375 75.984375 
L 37.109375 68.5 
L 28.515625 68.5 
Q 23.6875 68.5 21.796875 66.546875 
Q 19.921875 64.59375 19.921875 59.515625 
L 19.921875 54.6875 
L 34.71875 54.6875 
L 34.71875 47.703125 
L 19.921875 47.703125 
L 19.921875 0 
L 10.890625 0 
L 10.890625 47.703125 
L 2.296875 47.703125 
L 2.296875 54.6875 
L 10.890625 54.6875 
L 10.890625 58.5 
Q 10.890625 67.625 15.140625 71.796875 
Q 19.390625 75.984375 28.609375 75.984375 
z
" id="DejaVuSans-102"/>
      <path d="M 9.8125 72.90625 
L 19.671875 72.90625 
L 19.671875 5.078125 
Q 19.671875 -8.109375 14.671875 -14.0625 
Q 9.671875 -20.015625 -1.421875 -20.015625 
L -5.171875 -20.015625 
L -5.171875 -11.71875 
L -2.09375 -11.71875 
Q 4.4375 -11.71875 7.125 -8.046875 
Q 9.8125 -4.390625 9.8125 5.078125 
z
" id="DejaVuSans-74"/>
      <path d="M 19.671875 64.796875 
L 19.671875 8.109375 
L 31.59375 8.109375 
Q 46.6875 8.109375 53.6875 14.9375 
Q 60.6875 21.78125 60.6875 36.53125 
Q 60.6875 51.171875 53.6875 57.984375 
Q 46.6875 64.796875 31.59375 64.796875 
z
M 9.8125 72.90625 
L 30.078125 72.90625 
Q 51.265625 72.90625 61.171875 64.09375 
Q 71.09375 55.28125 71.09375 36.53125 
Q 71.09375 17.671875 61.125 8.828125 
Q 51.171875 0 30.078125 0 
L 9.8125 0 
z
" id="DejaVuSans-68"/>
      <path d="M 9.421875 75.984375 
L 18.40625 75.984375 
L 18.40625 0 
L 9.421875 0 
z
" id="DejaVuSans-108"/>
      <path d="M 45.40625 27.984375 
Q 45.40625 37.75 41.375 43.109375 
Q 37.359375 48.484375 30.078125 48.484375 
Q 22.859375 48.484375 18.828125 43.109375 
Q 14.796875 37.75 14.796875 27.984375 
Q 14.796875 18.265625 18.828125 12.890625 
Q 22.859375 7.515625 30.078125 7.515625 
Q 37.359375 7.515625 41.375 12.890625 
Q 45.40625 18.265625 45.40625 27.984375 
z
M 54.390625 6.78125 
Q 54.390625 -7.171875 48.1875 -13.984375 
Q 42 -20.796875 29.203125 -20.796875 
Q 24.46875 -20.796875 20.265625 -20.09375 
Q 16.0625 -19.390625 12.109375 -17.921875 
L 12.109375 -9.1875 
Q 16.0625 -11.328125 19.921875 -12.34375 
Q 23.78125 -13.375 27.78125 -13.375 
Q 36.625 -13.375 41.015625 -8.765625 
Q 45.40625 -4.15625 45.40625 5.171875 
L 45.40625 9.625 
Q 42.625 4.78125 38.28125 2.390625 
Q 33.9375 0 27.875 0 
Q 17.828125 0 11.671875 7.65625 
Q 5.515625 15.328125 5.515625 27.984375 
Q 5.515625 40.671875 11.671875 48.328125 
Q 17.828125 56 27.875 56 
Q 33.9375 56 38.28125 53.609375 
Q 42.625 51.21875 45.40625 46.390625 
L 45.40625 54.6875 
L 54.390625 54.6875 
z
" id="DejaVuSans-103"/>
      <path d="M 41.109375 46.296875 
Q 39.59375 47.171875 37.8125 47.578125 
Q 36.03125 48 33.890625 48 
Q 26.265625 48 22.1875 43.046875 
Q 18.109375 38.09375 18.109375 28.8125 
L 18.109375 0 
L 9.078125 0 
L 9.078125 54.6875 
L 18.109375 54.6875 
L 18.109375 46.1875 
Q 20.953125 51.171875 25.484375 53.578125 
Q 30.03125 56 36.53125 56 
Q 37.453125 56 38.578125 55.875 
Q 39.703125 55.765625 41.0625 55.515625 
z
" id="DejaVuSans-114"/>
      <path d="M 54.890625 33.015625 
L 54.890625 0 
L 45.90625 0 
L 45.90625 32.71875 
Q 45.90625 40.484375 42.875 44.328125 
Q 39.84375 48.1875 33.796875 48.1875 
Q 26.515625 48.1875 22.3125 43.546875 
Q 18.109375 38.921875 18.109375 30.90625 
L 18.109375 0 
L 9.078125 0 
L 9.078125 75.984375 
L 18.109375 75.984375 
L 18.109375 46.1875 
Q 21.34375 51.125 25.703125 53.5625 
Q 30.078125 56 35.796875 56 
Q 45.21875 56 50.046875 50.171875 
Q 54.890625 44.34375 54.890625 33.015625 
z
" id="DejaVuSans-104"/>
     </defs>
     <use xlink:href="#DejaVuSans-69"/>
     <use x="63.183594" xlink:href="#DejaVuSans-120"/>
     <use x="119.238281" xlink:href="#DejaVuSans-101"/>
     <use x="180.761719" xlink:href="#DejaVuSans-99"/>
     <use x="235.742188" xlink:href="#DejaVuSans-117"/>
     <use x="299.121094" xlink:href="#DejaVuSans-116"/>
     <use x="338.330078" xlink:href="#DejaVuSans-105"/>
     <use x="366.113281" xlink:href="#DejaVuSans-111"/>
     <use x="427.294922" xlink:href="#DejaVuSans-110"/>
     <use x="490.673828" xlink:href="#DejaVuSans-32"/>
     <use x="522.460938" xlink:href="#DejaVuSans-116"/>
     <use x="561.669922" xlink:href="#DejaVuSans-105"/>
     <use x="589.453125" xlink:href="#DejaVuSans-109"/>
     <use x="686.865234" xlink:href="#DejaVuSans-101"/>
     <use x="748.388672" xlink:href="#DejaVuSans-32"/>
     <use x="780.175781" xlink:href="#DejaVuSans-111"/>
     <use x="841.357422" xlink:href="#DejaVuSans-102"/>
     <use x="876.5625" xlink:href="#DejaVuSans-32"/>
     <use x="908.349609" xlink:href="#DejaVuSans-74"/>
     <use x="937.841797" xlink:href="#DejaVuSans-68"/>
     <use x="1014.84375" xlink:href="#DejaVuSans-32"/>
     <use x="1046.630859" xlink:href="#DejaVuSans-97"/>
     <use x="1107.910156" xlink:href="#DejaVuSans-108"/>
     <use x="1135.693359" xlink:href="#DejaVuSans-103"/>
     <use x="1199.169922" xlink:href="#DejaVuSans-111"/>
     <use x="1260.351562" xlink:href="#DejaVuSans-114"/>
     <use x="1301.464844" xlink:href="#DejaVuSans-105"/>
     <use x="1329.248047" xlink:href="#DejaVuSans-116"/>
     <use x="1368.457031" xlink:href="#DejaVuSans-104"/>
     <use x="1431.835938" xlink:href="#DejaVuSans-109"/>
     <use x="1529.248047" xlink:href="#DejaVuSans-115"/>
    </g>
   </g>
   <g id="legend_1">
    <g id="patch_7">
     <path d="M 115 133.230625 
L 187.417188 133.230625 
Q 189.417188 133.230625 189.417188 131.230625 
L 189.417188 58.84 
Q 189.417188 56.84 187.417188 56.84 
L 115 56.84 
Q 113 56.84 113 58.84 
L 113 131.230625 
Q 113 133.230625 115 133.230625 
z
" style="fill:#ffffff;opacity:0.8;stroke:#cccccc;stroke-linejoin:miter;"/>
    </g>
    <g id="line2d_56">
     <path d="M 117 64.938437 
L 137 64.938437 
" style="fill:none;stroke:#bf00bf;stroke-linecap:square;stroke-width:1.5;"/>
    </g>
    <g id="line2d_57"/>
    <g id="text_16">
     <!-- JADE -->
     <g transform="translate(145 68.438437)scale(0.1 -0.1)">
      <defs>
       <path d="M 34.1875 63.1875 
L 20.796875 26.90625 
L 47.609375 26.90625 
z
M 28.609375 72.90625 
L 39.796875 72.90625 
L 67.578125 0 
L 57.328125 0 
L 50.6875 18.703125 
L 17.828125 18.703125 
L 11.1875 0 
L 0.78125 0 
z
" id="DejaVuSans-65"/>
      </defs>
      <use xlink:href="#DejaVuSans-74"/>
      <use x="27.742188" xlink:href="#DejaVuSans-65"/>
      <use x="96.150391" xlink:href="#DejaVuSans-68"/>
      <use x="173.152344" xlink:href="#DejaVuSans-69"/>
     </g>
    </g>
    <g id="line2d_58">
     <path d="M 117 79.616562 
L 137 79.616562 
" style="fill:none;stroke:#008000;stroke-linecap:square;stroke-width:1.5;"/>
    </g>
    <g id="line2d_59"/>
    <g id="text_17">
     <!-- FFDIAG -->
     <g transform="translate(145 83.116562)scale(0.1 -0.1)">
      <defs>
       <path d="M 9.8125 72.90625 
L 51.703125 72.90625 
L 51.703125 64.59375 
L 19.671875 64.59375 
L 19.671875 43.109375 
L 48.578125 43.109375 
L 48.578125 34.8125 
L 19.671875 34.8125 
L 19.671875 0 
L 9.8125 0 
z
" id="DejaVuSans-70"/>
       <path d="M 9.8125 72.90625 
L 19.671875 72.90625 
L 19.671875 0 
L 9.8125 0 
z
" id="DejaVuSans-73"/>
      </defs>
      <use xlink:href="#DejaVuSans-70"/>
      <use x="57.519531" xlink:href="#DejaVuSans-70"/>
      <use x="115.039062" xlink:href="#DejaVuSans-68"/>
      <use x="192.041016" xlink:href="#DejaVuSans-73"/>
      <use x="221.533203" xlink:href="#DejaVuSans-65"/>
      <use x="288.191406" xlink:href="#DejaVuSans-71"/>
     </g>
    </g>
    <g id="line2d_60">
     <path d="M 117 94.294687 
L 137 94.294687 
" style="fill:none;stroke:#00ffff;stroke-linecap:square;stroke-width:1.5;"/>
    </g>
    <g id="line2d_61"/>
    <g id="text_18">
     <!-- PHAM -->
     <g transform="translate(145 97.794687)scale(0.1 -0.1)">
      <defs>
       <path d="M 19.671875 64.796875 
L 19.671875 37.40625 
L 32.078125 37.40625 
Q 38.96875 37.40625 42.71875 40.96875 
Q 46.484375 44.53125 46.484375 51.125 
Q 46.484375 57.671875 42.71875 61.234375 
Q 38.96875 64.796875 32.078125 64.796875 
z
M 9.8125 72.90625 
L 32.078125 72.90625 
Q 44.34375 72.90625 50.609375 67.359375 
Q 56.890625 61.8125 56.890625 51.125 
Q 56.890625 40.328125 50.609375 34.8125 
Q 44.34375 29.296875 32.078125 29.296875 
L 19.671875 29.296875 
L 19.671875 0 
L 9.8125 0 
z
" id="DejaVuSans-80"/>
       <path d="M 9.8125 72.90625 
L 19.671875 72.90625 
L 19.671875 43.015625 
L 55.515625 43.015625 
L 55.515625 72.90625 
L 65.375 72.90625 
L 65.375 0 
L 55.515625 0 
L 55.515625 34.71875 
L 19.671875 34.71875 
L 19.671875 0 
L 9.8125 0 
z
" id="DejaVuSans-72"/>
       <path d="M 9.8125 72.90625 
L 24.515625 72.90625 
L 43.109375 23.296875 
L 61.8125 72.90625 
L 76.515625 72.90625 
L 76.515625 0 
L 66.890625 0 
L 66.890625 64.015625 
L 48.09375 14.015625 
L 38.1875 14.015625 
L 19.390625 64.015625 
L 19.390625 0 
L 9.8125 0 
z
" id="DejaVuSans-77"/>
      </defs>
      <use xlink:href="#DejaVuSans-80"/>
      <use x="60.302734" xlink:href="#DejaVuSans-72"/>
      <use x="135.498047" xlink:href="#DejaVuSans-65"/>
      <use x="203.90625" xlink:href="#DejaVuSans-77"/>
     </g>
    </g>
    <g id="line2d_62">
     <path d="M 117 108.972812 
L 137 108.972812 
" style="fill:none;stroke:#ff0000;stroke-linecap:square;stroke-width:1.5;"/>
    </g>
    <g id="line2d_63"/>
    <g id="text_19">
     <!-- QNDIAG -->
     <g transform="translate(145 112.472812)scale(0.1 -0.1)">
      <defs>
       <path d="M 39.40625 66.21875 
Q 28.65625 66.21875 22.328125 58.203125 
Q 16.015625 50.203125 16.015625 36.375 
Q 16.015625 22.609375 22.328125 14.59375 
Q 28.65625 6.59375 39.40625 6.59375 
Q 50.140625 6.59375 56.421875 14.59375 
Q 62.703125 22.609375 62.703125 36.375 
Q 62.703125 50.203125 56.421875 58.203125 
Q 50.140625 66.21875 39.40625 66.21875 
z
M 53.21875 1.3125 
L 66.21875 -12.890625 
L 54.296875 -12.890625 
L 43.5 -1.21875 
Q 41.890625 -1.3125 41.03125 -1.359375 
Q 40.1875 -1.421875 39.40625 -1.421875 
Q 24.03125 -1.421875 14.8125 8.859375 
Q 5.609375 19.140625 5.609375 36.375 
Q 5.609375 53.65625 14.8125 63.9375 
Q 24.03125 74.21875 39.40625 74.21875 
Q 54.734375 74.21875 63.90625 63.9375 
Q 73.09375 53.65625 73.09375 36.375 
Q 73.09375 23.6875 67.984375 14.640625 
Q 62.890625 5.609375 53.21875 1.3125 
z
" id="DejaVuSans-81"/>
       <path d="M 9.8125 72.90625 
L 23.09375 72.90625 
L 55.421875 11.921875 
L 55.421875 72.90625 
L 64.984375 72.90625 
L 64.984375 0 
L 51.703125 0 
L 19.390625 60.984375 
L 19.390625 0 
L 9.8125 0 
z
" id="DejaVuSans-78"/>
      </defs>
      <use xlink:href="#DejaVuSans-81"/>
      <use x="78.710938" xlink:href="#DejaVuSans-78"/>
      <use x="153.515625" xlink:href="#DejaVuSans-68"/>
      <use x="230.517578" xlink:href="#DejaVuSans-73"/>
      <use x="260.009766" xlink:href="#DejaVuSans-65"/>
      <use x="326.667969" xlink:href="#DejaVuSans-71"/>
     </g>
    </g>
    <g id="line2d_64">
     <path d="M 117 123.650937 
L 137 123.650937 
" style="fill:none;stroke:#0000ff;stroke-linecap:square;stroke-width:1.5;"/>
    </g>
    <g id="line2d_65"/>
    <g id="text_20">
     <!-- DRJD -->
     <g transform="translate(145 127.150937)scale(0.1 -0.1)">
      <defs>
       <path d="M 44.390625 34.1875 
Q 47.5625 33.109375 50.5625 29.59375 
Q 53.5625 26.078125 56.59375 19.921875 
L 66.609375 0 
L 56 0 
L 46.6875 18.703125 
Q 43.0625 26.03125 39.671875 28.421875 
Q 36.28125 30.8125 30.421875 30.8125 
L 19.671875 30.8125 
L 19.671875 0 
L 9.8125 0 
L 9.8125 72.90625 
L 32.078125 72.90625 
Q 44.578125 72.90625 50.734375 67.671875 
Q 56.890625 62.453125 56.890625 51.90625 
Q 56.890625 45.015625 53.6875 40.46875 
Q 50.484375 35.9375 44.390625 34.1875 
z
M 19.671875 64.796875 
L 19.671875 38.921875 
L 32.078125 38.921875 
Q 39.203125 38.921875 42.84375 42.21875 
Q 46.484375 45.515625 46.484375 51.90625 
Q 46.484375 58.296875 42.84375 61.546875 
Q 39.203125 64.796875 32.078125 64.796875 
z
" id="DejaVuSans-82"/>
      </defs>
      <use xlink:href="#DejaVuSans-68"/>
      <use x="77.001953" xlink:href="#DejaVuSans-82"/>
      <use x="146.484375" xlink:href="#DejaVuSans-74"/>
      <use x="175.976562" xlink:href="#DejaVuSans-68"/>
     </g>
    </g>
   </g>
  </g>
 </g>
 <defs>
  <clipPath id="pdefeaa8d2c">
   <rect height="326.16" width="669.6" x="108" y="51.84"/>
  </clipPath>
 </defs>
</svg>
